<!--?xml version="1.0" encoding="utf-8"?-->
<!-- Generator: Adobe Illustrator 22.0.1, SVG Export Plug-In . SVG Version: 6.00 Build 0)  -->
<svg version="1.1" id="Layer_1" xmlns="http://www.w3.org/2000/svg" xmlns:xlink="http://www.w3.org/1999/xlink" x="0px" y="0px" viewBox="0 0 400 300" style="" xml:space="preserve">
<style type="text/css">
	.st0{fill:none;stroke:#4D4D4D;stroke-width:2;stroke-miterlimit:10;}
</style>
<path class="st0 ouufwXbP_0" d="M48.2,93.9c-0.8-1.5-1.7-2.9-2.8-4c-1.1-1.1-2.3-2-3.5-2.6c-1.3-0.7-2.6-1.2-4-1.5c-1.4-0.3-2.7-0.5-4-0.5
	c-2.9,0-5.5,0.6-7.7,1.8c-2.3,1.2-4.1,2.7-5.6,4.6s-2.6,4.1-3.5,6.4c-0.8,2.4-1.2,4.8-1.2,7.3c0,2.7,0.5,5.3,1.4,7.7
	c0.9,2.5,2.2,4.6,3.8,6.5c1.6,1.9,3.5,3.4,5.7,4.5c2.2,1.1,4.6,1.6,7.2,1.6c1.4,0,2.7-0.2,4.2-0.5c1.5-0.4,2.8-0.9,4.2-1.6
	c1.4-0.7,2.5-1.6,3.7-2.8c1.1-1.1,2.1-2.5,2.8-4.1l4,2.1c-0.8,1.8-1.9,3.5-3.3,4.8c-1.5,1.4-3,2.5-4.7,3.5c-1.7,0.9-3.5,1.7-5.5,2.2
	c-1.9,0.5-3.8,0.7-5.7,0.7c-3.4,0-6.4-0.7-9.1-2.2c-2.8-1.5-5.2-3.4-7.2-5.7c-2-2.4-3.5-5-4.6-8s-1.6-6-1.6-9.1
	c0-2.9,0.5-5.8,1.5-8.7s2.5-5.5,4.5-7.7c1.9-2.3,4.4-4.1,7.3-5.5c2.8-1.5,6.1-2.2,9.7-2.2c4.4,0,8,1,11.1,2.9c3.1,2,5.4,4.5,6.8,7.6
	"></path>
<path class="st0 ouufwXbP_1" d="M65.8,81.4v21.5h28.7V81.4h4.7v48.3h-4.7v-22.6H65.8v22.6H61V81.4"></path>
<path class="st0 ouufwXbP_2" d="M143.2,85.6h-27.2V103h23.6v4h-23.6v18.4h27.7v4.2h-32.5V81.4h31.9"></path>
<path class="st0 ouufwXbP_3" d="M157.8,81.4l18.9,33.2l19-33.2h4.8v48.3h-4.8V90L178,120.7h-2.8L157.6,90v39.7h-4.8V81.4"></path>
<path class="st0 ouufwXbP_4" d="M217.4,81.4v48.3h-4.7V81.4"></path>
<path class="st0 ouufwXbP_5" d="M257.8,90.4c-1.4-1.5-3.2-2.8-5.5-3.7c-2.3-1-4.9-1.5-7.7-1.5c-4.3,0-7.4,0.8-9.4,2.5c-2,1.6-2.9,3.8-2.9,6.5
	c0,1.5,0.3,2.6,0.8,3.5c0.5,0.9,1.4,1.7,2.5,2.5c1.1,0.7,2.5,1.3,4.2,1.8s3.7,1,6,1.5c2.5,0.5,4.9,1.2,7,1.8
	c2.1,0.7,3.8,1.5,5.3,2.5c1.5,1,2.5,2.3,3.4,3.7c0.7,1.5,1.2,3.3,1.2,5.5c0,2.3-0.5,4.2-1.3,5.8c-0.9,1.6-2.1,3-3.6,4.1
	c-1.5,1.1-3.4,1.9-5.5,2.5s-4.5,0.8-7,0.8c-7.5,0-14-2.4-19.4-7l2.4-3.9c0.8,0.9,1.9,1.7,3.1,2.5c1.2,0.8,2.5,1.5,4,2.2
	c1.5,0.6,3.1,1.1,4.7,1.5c1.6,0.4,3.5,0.5,5.3,0.5c3.8,0,6.9-0.7,9-2.1c2.2-1.4,3.3-3.5,3.3-6.3c0-1.5-0.3-2.7-0.9-3.8
	c-0.6-1-1.5-1.9-2.7-2.6c-1.2-0.7-2.7-1.4-4.5-1.9c-1.8-0.5-3.9-1.1-6.4-1.6c-2.5-0.5-4.8-1.2-6.6-1.8c-1.9-0.6-3.5-1.5-4.8-2.4
	c-1.4-0.9-2.3-2.1-3-3.5c-0.6-1.4-1-3-1-4.9c0-2.2,0.5-4.2,1.3-6c0.8-1.7,2-3.2,3.5-4.4c1.5-1.2,3.4-2.1,5.5-2.6
	c2.1-0.6,4.4-0.9,7-0.9c3.2,0,6.1,0.5,8.6,1.5c2.5,1,4.8,2.4,6.8,4.1"></path>
<path class="st0 ouufwXbP_6" d="M315.9,81.4h15.7c2.1,0,4,0.5,5.7,1.4s3.3,2.1,4.5,3.5c1.3,1.5,2.3,3.1,3,4.9c0.7,1.8,1.1,3.6,1.1,5.5
	c0,1.7-0.3,3.5-0.8,5.1c-0.5,1.6-1.3,3.1-2.2,4.4c-0.9,1.3-2.1,2.4-3.4,3.3c-1.4,0.9-2.8,1.5-4.5,1.8l11.9,18.6h-5.4L330.4,112H316
	v17.7h-4.8V81.4"></path>
<path class="st0 ouufwXbP_7" d="M354.4,81.4l15.8,26l15.9-26h5.2l-18.7,30.4v17.9h-4.8v-18.2l-18.6-30.2"></path>
<path class="st0 ouufwXbP_8" d="M92.8,175.7c-0.8-1.6-1.7-2.9-2.8-4c-1.1-1.1-2.3-2-3.5-2.6c-1.3-0.7-2.6-1.2-4-1.5c-1.4-0.3-2.7-0.5-4-0.5
	c-2.9,0-5.5,0.6-7.7,1.8c-2.3,1.2-4.1,2.7-5.6,4.6s-2.6,4.1-3.5,6.4c-0.8,2.4-1.2,4.8-1.2,7.3c0,2.7,0.5,5.3,1.4,7.7
	s2.2,4.6,3.8,6.5c1.6,1.9,3.5,3.4,5.7,4.5c2.2,1.1,4.6,1.6,7.2,1.6c1.4,0,2.7-0.2,4.2-0.5c1.5-0.4,2.8-0.9,4.2-1.6
	c1.4-0.7,2.5-1.6,3.7-2.8c1.1-1.1,2.1-2.5,2.8-4.1l4,2.1c-0.8,1.8-1.9,3.5-3.3,4.8c-1.5,1.4-3,2.5-4.7,3.5c-1.7,1-3.5,1.7-5.5,2.2
	c-1.9,0.5-3.8,0.7-5.7,0.7c-3.4,0-6.4-0.7-9.1-2.2c-2.8-1.5-5.2-3.4-7.2-5.7c-2-2.4-3.5-5-4.6-8c-1.1-3-1.6-6-1.6-9.1
	c0-2.9,0.5-5.8,1.5-8.7s2.5-5.5,4.5-7.7c1.9-2.3,4.4-4.1,7.3-5.5c2.8-1.5,6.1-2.2,9.7-2.2c4.4,0,8,1,11.1,2.9c3.1,2,5.4,4.5,6.8,7.6
	"></path>
<path class="st0 ouufwXbP_9" d="M110.5,163.1v44.1h27.9v4.3h-32.7v-48.4"></path>
<path class="st0 ouufwXbP_10" d="M164.4,163.1l20.1,48.4h-5.1l-6.3-15.2h-21.7l-6.2,15.2h-5.1l20.3-48.4"></path>
<path class="st0 ouufwXbP_11" d="M219,172.1c-1.4-1.5-3.2-2.8-5.5-3.7c-2.3-0.9-4.9-1.5-7.7-1.5c-4.3,0-7.4,0.8-9.4,2.5s-2.9,3.8-2.9,6.5
	c0,1.5,0.3,2.6,0.8,3.5c0.5,0.9,1.4,1.7,2.5,2.5c1.1,0.7,2.5,1.3,4.2,1.7c1.7,0.5,3.7,1,6,1.5c2.5,0.5,4.9,1.2,7,1.8
	c2.1,0.7,3.8,1.5,5.3,2.5c1.5,1,2.5,2.3,3.4,3.7c0.7,1.5,1.2,3.3,1.2,5.5c0,2.3-0.5,4.2-1.3,5.8c-0.9,1.6-2.1,3-3.6,4.1
	c-1.5,1.1-3.4,1.9-5.5,2.5c-2.2,0.5-4.5,0.8-7,0.8c-7.5,0-14-2.4-19.4-7l2.4-3.9c0.8,0.9,1.9,1.8,3.1,2.5c1.2,0.8,2.5,1.5,4,2.2
	c1.5,0.6,3.1,1.1,4.7,1.5c1.6,0.4,3.5,0.5,5.3,0.5c3.8,0,6.9-0.7,9-2.1c2.2-1.4,3.3-3.5,3.3-6.3c0-1.5-0.3-2.7-0.9-3.8
	c-0.6-1-1.5-1.9-2.7-2.6c-1.2-0.7-2.7-1.4-4.5-1.9c-1.8-0.5-3.9-1.1-6.4-1.6c-2.5-0.5-4.8-1.2-6.7-1.8s-3.5-1.5-4.8-2.4
	c-1.4-1-2.3-2.1-3-3.5c-0.6-1.4-1-3-1-4.9c0-2.2,0.5-4.2,1.3-6c0.8-1.7,2-3.2,3.5-4.4c1.5-1.2,3.4-2.1,5.5-2.6
	c2.1-0.6,4.4-0.9,7-0.9c3.2,0,6.1,0.5,8.6,1.5c2.5,1,4.8,2.4,6.8,4.1"></path>
<path class="st0 ouufwXbP_12" d="M260.3,172.1c-1.4-1.5-3.2-2.8-5.5-3.7c-2.3-0.9-4.9-1.5-7.7-1.5c-4.3,0-7.4,0.8-9.4,2.5s-2.9,3.8-2.9,6.5
	c0,1.5,0.3,2.6,0.8,3.5c0.5,0.9,1.4,1.7,2.5,2.5c1.1,0.7,2.5,1.3,4.2,1.7c1.7,0.5,3.7,1,6,1.5c2.6,0.5,4.9,1.2,7,1.8
	c2.1,0.6,3.8,1.5,5.3,2.5c1.5,1,2.5,2.3,3.4,3.7c0.7,1.5,1.2,3.3,1.2,5.5c0,2.3-0.5,4.2-1.3,5.8c-0.9,1.6-2.1,3-3.6,4.1
	c-1.5,1.1-3.4,1.9-5.5,2.5c-2.2,0.5-4.5,0.8-7,0.8c-7.5,0-14-2.4-19.4-7l2.4-3.9c0.8,0.9,1.9,1.8,3.1,2.5c1.2,0.8,2.5,1.5,4,2.2
	c1.5,0.6,3.1,1.1,4.7,1.5c1.6,0.4,3.5,0.5,5.3,0.5c3.9,0,6.9-0.7,9-2.1c2.2-1.4,3.3-3.5,3.3-6.3c0-1.5-0.3-2.7-0.9-3.8
	c-0.6-1-1.5-1.9-2.7-2.6c-1.2-0.7-2.7-1.4-4.5-1.9s-3.9-1.1-6.4-1.6c-2.5-0.5-4.8-1.2-6.7-1.8c-1.9-0.6-3.5-1.5-4.8-2.4
	c-1.4-1-2.3-2.1-3-3.5c-0.6-1.4-1-3-1-4.9c0-2.2,0.5-4.2,1.3-6c0.8-1.7,2-3.2,3.5-4.4c1.5-1.2,3.4-2.1,5.5-2.6
	c2.1-0.6,4.4-0.9,7-0.9c3.2,0,6.1,0.5,8.6,1.5c2.5,1,4.8,2.4,6.8,4.1"></path>
<path class="st0 ouufwXbP_13" d="M305.3,167.3h-27.1v17.4h23.6v4h-23.6v18.4h27.7v4.3h-32.5V163h31.9"></path>
<path class="st0 ouufwXbP_14" d="M342.2,172.1c-1.4-1.5-3.2-2.8-5.5-3.7c-2.3-0.9-4.9-1.5-7.7-1.5c-4.3,0-7.4,0.8-9.4,2.5
	c-2,1.6-2.9,3.8-2.9,6.5c0,1.5,0.3,2.6,0.8,3.5c0.5,0.9,1.4,1.7,2.5,2.5c1.1,0.7,2.5,1.3,4.2,1.7c1.7,0.5,3.7,1,6,1.5
	c2.5,0.5,4.9,1.2,7,1.8c2.1,0.7,3.8,1.5,5.3,2.5c1.5,1,2.5,2.3,3.4,3.7c0.7,1.5,1.2,3.3,1.2,5.5c0,2.3-0.5,4.2-1.3,5.8
	c-0.9,1.6-2.1,3-3.6,4.1c-1.5,1.1-3.4,1.9-5.5,2.5c-2.2,0.5-4.5,0.8-7,0.8c-7.5,0-14-2.4-19.4-7l2.4-3.9c0.8,0.9,1.9,1.8,3.1,2.5
	c1.2,0.8,2.5,1.5,4,2.2c1.5,0.6,3.1,1.1,4.7,1.5c1.6,0.4,3.5,0.5,5.3,0.5c3.8,0,6.9-0.7,9-2.1c2.2-1.4,3.3-3.5,3.3-6.3
	c0-1.5-0.3-2.7-0.9-3.8c-0.6-1-1.5-1.9-2.7-2.6c-1.2-0.7-2.7-1.4-4.5-1.9c-1.8-0.5-3.9-1.1-6.4-1.6c-2.5-0.5-4.8-1.2-6.6-1.8
	c-1.9-0.6-3.5-1.5-4.8-2.4c-1.4-1-2.3-2.1-3-3.5c-0.6-1.4-1-3-1-4.9c0-2.2,0.5-4.2,1.3-6c0.8-1.7,2-3.2,3.5-4.4
	c1.5-1.2,3.4-2.1,5.5-2.6s4.4-0.9,7-0.9c3.2,0,6.1,0.5,8.6,1.5c2.5,1,4.8,2.4,6.8,4.1"></path>
<g>
	<path class="st0 ouufwXbP_15" d="M305.8,85.6h-18.2v46.7h-5V85.6h-18.2v-4.5h41.5"></path>
</g>
<style data-made-with="vivus-instant">.ouufwXbP_0{stroke-dasharray:221 223;stroke-dashoffset:222;animation:ouufwXbP_draw_0 7200ms linear 0ms infinite,ouufwXbP_fade 7200ms linear 0ms infinite;}.ouufwXbP_1{stroke-dasharray:257 259;stroke-dashoffset:258;animation:ouufwXbP_draw_1 7200ms linear 0ms infinite,ouufwXbP_fade 7200ms linear 0ms infinite;}.ouufwXbP_2{stroke-dasharray:259 261;stroke-dashoffset:260;animation:ouufwXbP_draw_2 7200ms linear 0ms infinite,ouufwXbP_fade 7200ms linear 0ms infinite;}.ouufwXbP_3{stroke-dasharray:341 343;stroke-dashoffset:342;animation:ouufwXbP_draw_3 7200ms linear 0ms infinite,ouufwXbP_fade 7200ms linear 0ms infinite;}.ouufwXbP_4{stroke-dasharray:102 104;stroke-dashoffset:103;animation:ouufwXbP_draw_4 7200ms linear 0ms infinite,ouufwXbP_fade 7200ms linear 0ms infinite;}.ouufwXbP_5{stroke-dasharray:243 245;stroke-dashoffset:244;animation:ouufwXbP_draw_5 7200ms linear 0ms infinite,ouufwXbP_fade 7200ms linear 0ms infinite;}.ouufwXbP_6{stroke-dasharray:193 195;stroke-dashoffset:194;animation:ouufwXbP_draw_6 7200ms linear 0ms infinite,ouufwXbP_fade 7200ms linear 0ms infinite;}.ouufwXbP_7{stroke-dasharray:179 181;stroke-dashoffset:180;animation:ouufwXbP_draw_7 7200ms linear 0ms infinite,ouufwXbP_fade 7200ms linear 0ms infinite;}.ouufwXbP_8{stroke-dasharray:221 223;stroke-dashoffset:222;animation:ouufwXbP_draw_8 7200ms linear 0ms infinite,ouufwXbP_fade 7200ms linear 0ms infinite;}.ouufwXbP_9{stroke-dasharray:158 160;stroke-dashoffset:159;animation:ouufwXbP_draw_9 7200ms linear 0ms infinite,ouufwXbP_fade 7200ms linear 0ms infinite;}.ouufwXbP_10{stroke-dasharray:170 172;stroke-dashoffset:171;animation:ouufwXbP_draw_10 7200ms linear 0ms infinite,ouufwXbP_fade 7200ms linear 0ms infinite;}.ouufwXbP_11{stroke-dasharray:243 245;stroke-dashoffset:244;animation:ouufwXbP_draw_11 7200ms linear 0ms infinite,ouufwXbP_fade 7200ms linear 0ms infinite;}.ouufwXbP_12{stroke-dasharray:243 245;stroke-dashoffset:244;animation:ouufwXbP_draw_12 7200ms linear 0ms infinite,ouufwXbP_fade 7200ms linear 0ms infinite;}.ouufwXbP_13{stroke-dasharray:259 261;stroke-dashoffset:260;animation:ouufwXbP_draw_13 7200ms linear 0ms infinite,ouufwXbP_fade 7200ms linear 0ms infinite;}.ouufwXbP_14{stroke-dasharray:243 245;stroke-dashoffset:244;animation:ouufwXbP_draw_14 7200ms linear 0ms infinite,ouufwXbP_fade 7200ms linear 0ms infinite;}.ouufwXbP_15{stroke-dasharray:181 183;stroke-dashoffset:182;animation:ouufwXbP_draw_15 7200ms linear 0ms infinite,ouufwXbP_fade 7200ms linear 0ms infinite;}@keyframes ouufwXbP_draw{100%{stroke-dashoffset:0;}}@keyframes ouufwXbP_fade{0%{stroke-opacity:1;}94.44444444444444%{stroke-opacity:1;}100%{stroke-opacity:0;}}@keyframes ouufwXbP_draw_0{11.11111111111111%{stroke-dashoffset: 222}38.88888888888889%{ stroke-dashoffset: 0;}100%{ stroke-dashoffset: 0;}}@keyframes ouufwXbP_draw_1{12.037037037037036%{stroke-dashoffset: 258}39.81481481481482%{ stroke-dashoffset: 0;}100%{ stroke-dashoffset: 0;}}@keyframes ouufwXbP_draw_2{12.962962962962962%{stroke-dashoffset: 260}40.74074074074075%{ stroke-dashoffset: 0;}100%{ stroke-dashoffset: 0;}}@keyframes ouufwXbP_draw_3{13.88888888888889%{stroke-dashoffset: 342}41.66666666666667%{ stroke-dashoffset: 0;}100%{ stroke-dashoffset: 0;}}@keyframes ouufwXbP_draw_4{14.814814814814817%{stroke-dashoffset: 103}42.592592592592595%{ stroke-dashoffset: 0;}100%{ stroke-dashoffset: 0;}}@keyframes ouufwXbP_draw_5{15.740740740740744%{stroke-dashoffset: 244}43.518518518518526%{ stroke-dashoffset: 0;}100%{ stroke-dashoffset: 0;}}@keyframes ouufwXbP_draw_6{16.666666666666664%{stroke-dashoffset: 194}44.44444444444444%{ stroke-dashoffset: 0;}100%{ stroke-dashoffset: 0;}}@keyframes ouufwXbP_draw_7{17.59259259259259%{stroke-dashoffset: 180}45.370370370370374%{ stroke-dashoffset: 0;}100%{ stroke-dashoffset: 0;}}@keyframes ouufwXbP_draw_8{18.51851851851852%{stroke-dashoffset: 222}46.2962962962963%{ stroke-dashoffset: 0;}100%{ stroke-dashoffset: 0;}}@keyframes ouufwXbP_draw_9{19.444444444444446%{stroke-dashoffset: 159}47.22222222222222%{ stroke-dashoffset: 0;}100%{ stroke-dashoffset: 0;}}@keyframes ouufwXbP_draw_10{20.370370370370374%{stroke-dashoffset: 171}48.14814814814815%{ stroke-dashoffset: 0;}100%{ stroke-dashoffset: 0;}}@keyframes ouufwXbP_draw_11{21.296296296296298%{stroke-dashoffset: 244}49.074074074074076%{ stroke-dashoffset: 0;}100%{ stroke-dashoffset: 0;}}@keyframes ouufwXbP_draw_12{22.22222222222222%{stroke-dashoffset: 244}50%{ stroke-dashoffset: 0;}100%{ stroke-dashoffset: 0;}}@keyframes ouufwXbP_draw_13{23.14814814814815%{stroke-dashoffset: 260}50.92592592592593%{ stroke-dashoffset: 0;}100%{ stroke-dashoffset: 0;}}@keyframes ouufwXbP_draw_14{24.074074074074076%{stroke-dashoffset: 244}51.85185185185185%{ stroke-dashoffset: 0;}100%{ stroke-dashoffset: 0;}}@keyframes ouufwXbP_draw_15{25%{stroke-dashoffset: 182}52.77777777777778%{ stroke-dashoffset: 0;}100%{ stroke-dashoffset: 0;}}</style></svg>
