<!--?xml version="1.0" encoding="utf-8"?-->
<!-- Generator: Adobe Illustrator 22.0.1, SVG Export Plug-In . SVG Version: 6.00 Build 0)  -->
<svg version="1.1" id="Layer_1" xmlns="http://www.w3.org/2000/svg" xmlns:xlink="http://www.w3.org/1999/xlink" x="0px" y="0px" viewBox="0 0 400 300" style="" xml:space="preserve">
<style type="text/css">
	.st0{fill:none;stroke:#4D4D4D;stroke-width:2;stroke-miterlimit:10;}
</style>
<path class="st0 BsGKnlXI_0" d="M57,88.6c-0.9-1.7-1.9-3.2-3.1-4.4C52.7,83,51.4,82,50,81.3c-1.4-0.8-2.9-1.3-4.4-1.6c-1.5-0.3-3-0.5-4.4-0.5
	c-3.2,0-6,0.7-8.5,2c-2.5,1.3-4.5,3-6.2,5.1c-1.7,2.1-2.9,4.5-3.8,7.1c-0.9,2.6-1.3,5.3-1.3,8c0,3,0.5,5.8,1.5,8.5
	c1,2.7,2.4,5.1,4.2,7.2c1.8,2.1,3.9,3.7,6.3,5c2.4,1.2,5.1,1.8,7.9,1.8c1.5,0,3-0.2,4.6-0.6c1.6-0.4,3.1-1,4.6-1.8
	c1.5-0.8,2.8-1.8,4.1-3.1c1.2-1.2,2.3-2.7,3.1-4.5l4.4,2.3c-0.9,2-2.1,3.8-3.6,5.3c-1.6,1.5-3.3,2.8-5.2,3.9c-1.9,1-3.9,1.9-6,2.4
	c-2.1,0.5-4.2,0.8-6.3,0.8c-3.7,0-7-0.8-10-2.4c-3.1-1.6-5.7-3.7-7.9-6.3c-2.2-2.6-3.9-5.5-5.1-8.8c-1.2-3.3-1.8-6.6-1.8-10
	c0-3.2,0.6-6.4,1.7-9.6c1.1-3.2,2.8-6,4.9-8.5c2.1-2.5,4.8-4.5,8-6.1c3.1-1.6,6.7-2.4,10.7-2.4c4.8,0,8.8,1.1,12.2,3.2
	c3.4,2.2,5.9,5,7.5,8.4"></path>
<path class="st0 BsGKnlXI_1" d="M76.4,74.8v23.7H108V74.8h5.2V128H108v-24.9H76.4V128h-5.3V74.8"></path>
<path class="st0 BsGKnlXI_2" d="M161.6,79.4h-29.9v19.2h26v4.4h-26v20.3h30.5v4.6h-35.8V74.8h35.1"></path>
<path class="st0 BsGKnlXI_3" d="M177.6,74.8l20.8,36.5l20.9-36.5h5.3V128h-5.3V84.3l-19.4,33.8h-3.1l-19.4-33.8V128h-5.3V74.8"></path>
<path class="st0 BsGKnlXI_4" d="M243.2,74.8V128H238V74.8"></path>
<path class="st0 BsGKnlXI_5" d="M287.7,84.7c-1.5-1.7-3.5-3.1-6-4.1c-2.5-1.1-5.4-1.6-8.5-1.6c-4.7,0-8.1,0.9-10.3,2.7
	c-2.2,1.8-3.2,4.2-3.2,7.2c0,1.6,0.3,2.9,0.9,3.9c0.6,1,1.5,1.9,2.7,2.7c1.2,0.8,2.7,1.4,4.6,2c1.9,0.6,4.1,1.1,6.6,1.6
	c2.8,0.6,5.4,1.3,7.7,2c2.3,0.8,4.2,1.7,5.8,2.8c1.6,1.1,2.8,2.5,3.7,4.1c0.8,1.6,1.3,3.6,1.3,6c0,2.5-0.5,4.6-1.4,6.4
	c-1,1.8-2.3,3.3-4,4.5c-1.7,1.2-3.7,2.1-6.1,2.7c-2.4,0.6-4.9,0.9-7.7,0.9c-8.3,0-15.4-2.6-21.4-7.7l2.6-4.3c0.9,1,2.1,1.9,3.4,2.8
	c1.3,0.9,2.8,1.7,4.4,2.4c1.6,0.7,3.4,1.2,5.2,1.6c1.8,0.4,3.8,0.6,5.8,0.6c4.2,0,7.6-0.8,9.9-2.3c2.4-1.5,3.6-3.8,3.6-6.9
	c0-1.7-0.3-3-1-4.2c-0.7-1.1-1.7-2.1-3-2.9c-1.3-0.8-3-1.5-5-2.1s-4.3-1.2-7-1.8c-2.8-0.6-5.3-1.3-7.3-2c-2.1-0.7-3.9-1.6-5.3-2.6
	c-1.5-1-2.5-2.3-3.3-3.8c-0.7-1.5-1.1-3.3-1.1-5.4c0-2.4,0.5-4.6,1.4-6.6c0.9-1.9,2.2-3.5,3.9-4.8c1.7-1.3,3.7-2.3,6-2.9
	c2.3-0.7,4.8-1,7.7-1c3.5,0,6.7,0.5,9.5,1.6c2.8,1.1,5.3,2.6,7.5,4.5"></path>
<path class="st0 BsGKnlXI_6" d="M307.3,74.8h17.3c2.3,0,4.4,0.5,6.3,1.5c1.9,1,3.6,2.3,5,3.8c1.4,1.6,2.5,3.4,3.3,5.4c0.8,2,1.2,4,1.2,6.1
	c0,1.9-0.3,3.8-0.9,5.6c-0.6,1.8-1.4,3.4-2.4,4.8c-1,1.4-2.3,2.6-3.7,3.6c-1.5,1-3.1,1.6-4.9,2l13.1,20.5h-5.9l-12.5-19.6h-15.8V128
	h-5.3V74.8"></path>
<path class="st0 BsGKnlXI_7" d="M349.6,74.8l17.4,28.6l17.5-28.6h5.7l-20.6,33.5V128h-5.3v-20l-20.5-33.3"></path>
<path class="st0 BsGKnlXI_8" d="M81.9,178.6c-0.9-1.8-1.9-3.2-3.1-4.4c-1.2-1.2-2.5-2.2-3.9-2.9c-1.4-0.8-2.9-1.3-4.4-1.6
	c-1.5-0.3-3-0.5-4.4-0.5c-3.2,0-6,0.7-8.5,2c-2.5,1.3-4.5,3-6.2,5.1c-1.7,2.1-2.9,4.5-3.8,7.1c-0.9,2.6-1.3,5.3-1.3,8
	c0,3,0.5,5.8,1.5,8.5c1,2.7,2.4,5.1,4.2,7.2c1.8,2.1,3.9,3.7,6.3,5c2.4,1.2,5.1,1.8,7.9,1.8c1.5,0,3-0.2,4.6-0.6
	c1.6-0.4,3.1-1,4.6-1.8c1.5-0.8,2.8-1.8,4.1-3.1c1.2-1.2,2.3-2.7,3.1-4.5l4.4,2.3c-0.9,2-2.1,3.8-3.6,5.3c-1.6,1.5-3.3,2.8-5.2,3.9
	c-1.9,1.1-3.9,1.9-6,2.4c-2.1,0.5-4.2,0.8-6.3,0.8c-3.7,0-7-0.8-10-2.4c-3.1-1.6-5.7-3.7-7.9-6.3c-2.2-2.6-3.9-5.5-5.1-8.8
	c-1.2-3.3-1.8-6.6-1.8-10c0-3.2,0.6-6.4,1.7-9.6c1.1-3.2,2.8-6,4.9-8.5c2.1-2.5,4.8-4.5,8-6.1c3.1-1.6,6.7-2.4,10.7-2.4
	c4.8,0,8.8,1.1,12.2,3.2c3.4,2.2,5.9,5,7.5,8.4"></path>
<path class="st0 BsGKnlXI_9" d="M101.3,164.8v48.6H132v4.7H96v-53.3"></path>
<path class="st0 BsGKnlXI_10" d="M160.7,164.8l22.1,53.3h-5.6l-6.9-16.7h-23.9l-6.8,16.7H134l22.3-53.3"></path>
<path class="st0 BsGKnlXI_11" d="M220.8,174.7c-1.5-1.7-3.5-3.1-6-4.1c-2.5-1-5.4-1.6-8.5-1.6c-4.7,0-8.1,0.9-10.3,2.7c-2.2,1.8-3.2,4.2-3.2,7.2
	c0,1.6,0.3,2.9,0.9,3.9c0.6,1,1.5,1.9,2.7,2.7c1.2,0.8,2.7,1.4,4.6,1.9c1.9,0.6,4.1,1.1,6.6,1.7c2.8,0.6,5.4,1.3,7.7,2
	c2.3,0.8,4.2,1.7,5.8,2.8c1.6,1.1,2.8,2.5,3.7,4.1c0.8,1.6,1.3,3.6,1.3,6c0,2.5-0.5,4.6-1.4,6.4c-1,1.8-2.3,3.3-4,4.5
	c-1.7,1.2-3.7,2.1-6.1,2.7c-2.4,0.6-4.9,0.9-7.7,0.9c-8.3,0-15.4-2.6-21.4-7.7l2.6-4.3c0.9,1,2.1,2,3.4,2.8c1.3,0.9,2.8,1.7,4.4,2.4
	c1.6,0.7,3.4,1.2,5.2,1.6c1.8,0.4,3.8,0.6,5.8,0.6c4.2,0,7.6-0.8,9.9-2.3c2.4-1.5,3.6-3.8,3.6-6.9c0-1.7-0.3-3-1-4.2
	c-0.7-1.1-1.7-2.1-3-2.9s-3-1.5-5-2.1c-2-0.6-4.3-1.2-7-1.8c-2.8-0.6-5.3-1.3-7.4-2s-3.9-1.6-5.3-2.6c-1.5-1.1-2.5-2.3-3.3-3.8
	c-0.7-1.5-1.1-3.3-1.1-5.4c0-2.4,0.5-4.6,1.4-6.6c0.9-1.9,2.2-3.5,3.9-4.8c1.7-1.3,3.7-2.3,6-2.9c2.3-0.7,4.8-1,7.7-1
	c3.5,0,6.7,0.5,9.5,1.6c2.8,1.1,5.3,2.6,7.5,4.5"></path>
<path class="st0 BsGKnlXI_12" d="M266.3,174.7c-1.5-1.7-3.5-3.1-6-4.1c-2.5-1-5.4-1.6-8.5-1.6c-4.7,0-8.1,0.9-10.3,2.7c-2.2,1.8-3.2,4.2-3.2,7.2
	c0,1.6,0.3,2.9,0.9,3.9c0.6,1,1.5,1.9,2.7,2.7c1.2,0.8,2.7,1.4,4.6,1.9c1.9,0.6,4.1,1.1,6.6,1.7c2.9,0.6,5.4,1.3,7.7,2
	s4.2,1.7,5.8,2.8s2.8,2.5,3.7,4.1c0.8,1.6,1.3,3.6,1.3,6c0,2.5-0.5,4.6-1.4,6.4c-1,1.8-2.3,3.3-4,4.5c-1.7,1.2-3.7,2.1-6.1,2.7
	c-2.4,0.6-4.9,0.9-7.7,0.9c-8.3,0-15.4-2.6-21.4-7.7l2.6-4.3c0.9,1,2.1,2,3.4,2.8c1.3,0.9,2.8,1.7,4.4,2.4c1.6,0.7,3.4,1.2,5.2,1.6
	c1.8,0.4,3.8,0.6,5.8,0.6c4.3,0,7.6-0.8,9.9-2.3c2.4-1.5,3.6-3.8,3.6-6.9c0-1.7-0.3-3-1-4.2c-0.7-1.1-1.7-2.1-3-2.9s-3-1.5-5-2.1
	c-2-0.6-4.3-1.2-7-1.8c-2.8-0.6-5.3-1.3-7.4-2c-2.1-0.7-3.9-1.6-5.3-2.6c-1.5-1.1-2.5-2.3-3.3-3.8c-0.7-1.5-1.1-3.3-1.1-5.4
	c0-2.4,0.5-4.6,1.4-6.6c0.9-1.9,2.2-3.5,3.9-4.8c1.7-1.3,3.7-2.3,6-2.9c2.3-0.7,4.8-1,7.7-1c3.5,0,6.7,0.5,9.5,1.6
	c2.8,1.1,5.3,2.6,7.5,4.5"></path>
<path class="st0 BsGKnlXI_13" d="M315.8,169.4h-29.8v19.2h26v4.4h-26v20.3h30.5v4.7h-35.8v-53.3h35.1"></path>
<path class="st0 BsGKnlXI_14" d="M356.4,174.7c-1.5-1.7-3.5-3.1-6-4.1c-2.5-1-5.4-1.6-8.5-1.6c-4.7,0-8.1,0.9-10.3,2.7c-2.2,1.8-3.2,4.2-3.2,7.2
	c0,1.6,0.3,2.9,0.9,3.9c0.6,1,1.5,1.9,2.7,2.7c1.2,0.8,2.7,1.4,4.6,1.9c1.9,0.6,4.1,1.1,6.6,1.7c2.8,0.6,5.4,1.3,7.7,2
	c2.3,0.8,4.2,1.7,5.8,2.8c1.6,1.1,2.8,2.5,3.7,4.1c0.8,1.6,1.3,3.6,1.3,6c0,2.5-0.5,4.6-1.4,6.4c-1,1.8-2.3,3.3-4,4.5
	c-1.7,1.2-3.7,2.1-6.1,2.7c-2.4,0.6-4.9,0.9-7.7,0.9c-8.3,0-15.4-2.6-21.4-7.7l2.6-4.3c0.9,1,2.1,2,3.4,2.8c1.3,0.9,2.8,1.7,4.4,2.4
	c1.6,0.7,3.4,1.2,5.2,1.6c1.8,0.4,3.8,0.6,5.8,0.6c4.2,0,7.6-0.8,9.9-2.3c2.4-1.5,3.6-3.8,3.6-6.9c0-1.7-0.3-3-1-4.2
	c-0.7-1.1-1.7-2.1-3-2.9s-3-1.5-5-2.1c-2-0.6-4.3-1.2-7-1.8c-2.8-0.6-5.3-1.3-7.3-2c-2.1-0.7-3.9-1.6-5.3-2.6
	c-1.5-1.1-2.5-2.3-3.3-3.8c-0.7-1.5-1.1-3.3-1.1-5.4c0-2.4,0.5-4.6,1.4-6.6c0.9-1.9,2.2-3.5,3.9-4.8c1.7-1.3,3.7-2.3,6-2.9
	s4.8-1,7.7-1c3.5,0,6.7,0.5,9.5,1.6c2.8,1.1,5.3,2.6,7.5,4.5"></path>
<style data-made-with="vivus-instant">.BsGKnlXI_0{stroke-dasharray:243 245;stroke-dashoffset:244;animation:BsGKnlXI_draw 1333ms linear 0ms forwards;}.BsGKnlXI_1{stroke-dasharray:283 285;stroke-dashoffset:284;animation:BsGKnlXI_draw 1333ms linear 47ms forwards;}.BsGKnlXI_2{stroke-dasharray:285 287;stroke-dashoffset:286;animation:BsGKnlXI_draw 1333ms linear 95ms forwards;}.BsGKnlXI_3{stroke-dasharray:375 377;stroke-dashoffset:376;animation:BsGKnlXI_draw 1333ms linear 142ms forwards;}.BsGKnlXI_4{stroke-dasharray:112 114;stroke-dashoffset:113;animation:BsGKnlXI_draw 1333ms linear 190ms forwards;}.BsGKnlXI_5{stroke-dasharray:268 270;stroke-dashoffset:269;animation:BsGKnlXI_draw 1333ms linear 238ms forwards;}.BsGKnlXI_6{stroke-dasharray:212 214;stroke-dashoffset:213;animation:BsGKnlXI_draw 1333ms linear 285ms forwards;}.BsGKnlXI_7{stroke-dasharray:197 199;stroke-dashoffset:198;animation:BsGKnlXI_draw 1333ms linear 333ms forwards;}.BsGKnlXI_8{stroke-dasharray:243 245;stroke-dashoffset:244;animation:BsGKnlXI_draw 1333ms linear 380ms forwards;}.BsGKnlXI_9{stroke-dasharray:174 176;stroke-dashoffset:175;animation:BsGKnlXI_draw 1333ms linear 428ms forwards;}.BsGKnlXI_10{stroke-dasharray:187 189;stroke-dashoffset:188;animation:BsGKnlXI_draw 1333ms linear 476ms forwards;}.BsGKnlXI_11{stroke-dasharray:268 270;stroke-dashoffset:269;animation:BsGKnlXI_draw 1333ms linear 523ms forwards;}.BsGKnlXI_12{stroke-dasharray:268 270;stroke-dashoffset:269;animation:BsGKnlXI_draw 1333ms linear 571ms forwards;}.BsGKnlXI_13{stroke-dasharray:286 288;stroke-dashoffset:287;animation:BsGKnlXI_draw 1333ms linear 619ms forwards;}.BsGKnlXI_14{stroke-dasharray:267 269;stroke-dashoffset:268;animation:BsGKnlXI_draw 1333ms linear 666ms forwards;}@keyframes BsGKnlXI_draw{100%{stroke-dashoffset:0;}}@keyframes BsGKnlXI_fade{0%{stroke-opacity:1;}84.61538461538461%{stroke-opacity:1;}100%{stroke-opacity:0;}}</style></svg>
