<?xml version="1.0" encoding="utf-8"?>
<!-- Generator: Adobe Illustrator 22.0.1, SVG Export Plug-In . SVG Version: 6.00 Build 0)  -->
<svg version="1.1" id="Layer_1" xmlns="http://www.w3.org/2000/svg" xmlns:xlink="http://www.w3.org/1999/xlink" x="0px" y="0px"
	 viewBox="0 0 916.1 916.7" style="enable-background:new 0 0 916.1 916.7;" xml:space="preserve">
<style type="text/css">
	.st0{fill:url(#SVGID_1_); opacity:.8}
	.st1{opacity:0.3;}
	.st2{opacity:0.05;fill:none;stroke:#FFFFFF;stroke-miterlimit:10;}
	.st3{opacity:0.8;}
	.st4{fill:none;stroke:#FFFFFF;stroke-width:7;stroke-miterlimit:10;}
</style>
<linearGradient id="SVGID_1_" gradientUnits="userSpaceOnUse" x1="229.0411" y1="61.7578" x2="686.6632" y2="854.3827">
		<stop  offset="0" style="stop-color:#673AB7"/>
		
		<stop  offset="1" style="stop-color:#00AEEF"/>
	</linearGradient>
<g>
	
	<g>
		<circle class="st0" cx="457.9" cy="458.1" r="457.5"/>
		<g class="st1">
			<polygon class="st2" points="256.3,359 254.6,358.9 253.9,357.3 254.9,355.8 256.6,356 257.3,357.6 		"/>
			<polygon class="st2" points="256.3,359 254.6,358.9 253.9,357.3 254.9,355.8 256.6,356 257.3,357.6 		"/>
			<polygon class="st2" points="256.3,359.3 254.3,359 253.6,357.1 254.9,355.6 256.9,355.9 257.6,357.8 		"/>
			<polygon class="st2" points="256.3,359.6 254.1,359.2 253.4,357 254.9,355.3 257.1,355.7 257.9,357.9 		"/>
			<polygon class="st2" points="256.3,359.6 254.1,359.2 253.4,357 254.9,355.3 257.1,355.7 257.9,357.9 		"/>
			<polygon class="st2" points="258.1,359.6 255,360.7 252.5,358.5 253.1,355.3 256.2,354.2 258.8,356.4 		"/>
			<polygon class="st2" points="260.1,360.2 255.4,362.7 251,359.9 251.1,354.7 255.8,352.2 260.2,355 		"/>
			<polygon class="st2" points="262.3,361.7 255.3,365.3 248.6,361.1 248.9,353.2 256,349.5 262.6,353.8 		"/>
			<polygon class="st2" points="265.5,361.7 256.9,368.2 246.9,363.9 245.7,353.2 254.3,346.7 264.3,351 		"/>
			<polygon class="st2" points="267.6,361.7 257.9,370 245.9,365.7 243.6,353.2 253.3,344.9 265.3,349.2 		"/>
			<polygon class="st2" points="269.7,361.7 259,371.8 244.9,367.5 241.5,353.2 252.3,343.1 266.4,347.4 		"/>
			<polygon class="st2" points="271.2,361.7 259.7,373 244.1,368.8 240.1,353.2 251.5,341.8 267.1,346.1 		"/>
			<polygon class="st2" points="271.2,361.7 259.7,373 244.1,368.8 240.1,353.2 251.5,341.8 267.1,346.1 		"/>
			<polygon class="st2" points="272.7,361.7 260.5,374.4 243.4,370.1 238.5,353.2 250.8,340.5 267.8,344.8 		"/>
			<polygon class="st2" points="274.5,361.7 261.3,375.9 242.5,371.6 236.8,353.2 249.9,339 268.7,343.2 		"/>
			<polygon class="st2" points="276.3,361.7 262.2,377.4 241.6,373.2 235,353.2 249,337.4 269.6,341.7 		"/>
			<polygon class="st2" points="278.2,361.7 263.2,379.1 240.6,374.9 233,353.2 248,335.7 270.6,340 		"/>
			<polygon class="st2" points="278.2,361.7 263.2,379.1 240.6,374.9 233,353.2 248,335.7 270.6,340 		"/>
			<polygon class="st2" points="279.5,360.8 264.7,379.8 240.8,376.5 231.7,354.1 246.6,335.1 270.4,338.4 		"/>
			<polygon class="st2" points="280.7,359.8 266.1,380.4 241,378 230.5,355 245.1,334.5 270.3,336.9 		"/>
			<polygon class="st2" points="281.9,360.2 266.4,381.6 240.1,378.8 229.3,354.7 244.9,333.3 271.2,336.1 		"/>
			<polygon class="st2" points="282.5,359.9 266.9,382 240,379.5 228.7,355 244.3,332.9 271.2,335.4 		"/>
			<polygon class="st2" points="284,359.6 267.9,383.1 239.5,380.9 227.2,355.3 243.3,331.8 271.7,334 		"/>
			<polygon class="st2" points="285.2,358.6 269.4,383.6 239.8,382.5 226,356.3 241.8,331.2 271.4,332.4 		"/>
			<polygon class="st2" points="284.9,359 268.9,383.6 239.6,382 226.3,355.8 242.4,331.3 271.6,332.9 		"/>
			<polygon class="st2" points="285.5,358.7 269.4,383.9 239.6,382.7 225.7,356.1 241.8,330.9 271.7,332.2 		"/>
			<polygon class="st2" points="285.8,358.4 269.8,384.1 239.7,383.1 225.5,356.4 241.4,330.8 271.5,331.8 		"/>
			<polygon class="st2" points="286.7,357.4 271.1,384.3 240.1,384.3 224.6,357.4 240.1,330.5 271.1,330.5 		"/>
			<polygon class="st2" points="287,357.4 271.3,384.6 239.9,384.6 224.3,357.4 239.9,330.3 271.3,330.3 		"/>
			<polygon class="st2" points="287.3,357.4 271.5,384.8 239.8,384.9 224,357.5 239.8,330 271.4,330 		"/>
			<polygon class="st2" points="287.6,357.4 271.6,385.1 239.7,385.1 223.7,357.5 239.6,329.8 271.6,329.8 		"/>
			<polygon class="st2" points="288.4,357.4 272,385.9 239.2,385.9 222.8,357.5 239.2,329 272,329 		"/>
			<polygon class="st2" points="288.7,357.4 272.2,386.1 239.1,386.1 222.5,357.5 239,328.8 272.2,328.7 		"/>
			<polygon class="st2" points="288.7,356 273.4,385.4 240.2,386.8 222.5,358.8 237.8,329.4 271,328 		"/>
			<polygon class="st2" points="289.3,355.5 274.2,385.7 240.5,387.6 221.9,359.4 237,329.2 270.8,327.2 		"/>
			<polygon class="st2" points="289.6,355.2 274.6,385.8 240.6,388 221.6,359.7 236.6,329.1 270.6,326.8 		"/>
			<polygon class="st2" points="289.9,355.2 274.7,386 240.4,388.3 221.3,359.7 236.5,328.9 270.8,326.6 		"/>
			<polygon class="st2" points="290.2,354.9 275.1,386.1 240.5,388.7 221,360 236.1,328.7 270.7,326.2 		"/>
			<polygon class="st2" points="290.8,354.3 276,386.3 240.7,389.5 220.4,360.6 235.3,328.5 270.5,325.4 		"/>
			<polygon class="st2" points="291.4,353.7 276.8,386.6 241,390.3 219.8,361.2 234.4,328.3 270.3,324.5 		"/>
			<polygon class="st2" points="291.4,353.4 277,386.4 241.2,390.5 219.8,361.5 234.2,328.5 270,324.4 		"/>
			<polygon class="st2" points="291.4,353.4 277,386.4 241.2,390.5 219.8,361.5 234.2,328.5 270,324.4 		"/>
			<polygon class="st2" points="291.7,353.4 277.2,386.7 241.1,390.7 219.5,361.5 234,328.2 270.1,324.1 		"/>
			<polygon class="st2" points="292.3,352.8 278,386.9 241.3,391.5 218.9,362.1 233.2,328 269.9,323.3 		"/>
			<polygon class="st2" points="292.3,352.5 278.3,386.7 241.6,391.7 218.9,362.4 233,328.1 269.7,323.2 		"/>
			<polygon class="st2" points="293.8,352.2 279.3,387.9 241.1,393.1 217.4,362.7 232,327 270.2,321.7 		"/>
			<polygon class="st2" points="293.8,351.9 279.5,387.7 241.3,393.3 217.4,363 231.7,327.1 269.9,321.6 		"/>
			<polygon class="st2" points="293.8,351.3 280,387.4 241.8,393.6 217.4,363.6 231.2,327.4 269.4,321.3 		"/>
			<polygon class="st2" points="293.8,351 280.3,387.3 242.1,393.7 217.4,363.9 230.9,327.6 269.1,321.1 		"/>
			<polygon class="st2" points="293.8,350.7 280.5,387.1 242.4,393.9 217.4,364.2 230.7,327.7 268.9,321 		"/>
			<polygon class="st2" points="293.8,350.1 281.1,386.8 242.9,394.2 217.4,364.8 230.2,328 268.4,320.7 		"/>
			<polygon class="st2" points="293.9,349.2 281.9,386.5 243.6,394.7 217.3,365.7 229.3,328.3 267.7,320.1 		"/>
			<polygon class="st2" points="293.9,348.6 282.4,386.2 244.1,395 217.3,366.3 228.8,328.6 267.1,319.8 		"/>
			<polygon class="st2" points="293.9,348.3 282.7,386.1 244.3,395.2 217.3,366.6 228.5,328.8 266.9,319.7 		"/>
			<polygon class="st2" points="293.9,347.2 283.6,385.5 245.3,395.8 217.3,367.7 227.6,329.4 265.9,319.1 		"/>
			<polygon class="st2" points="293.9,347.2 283.6,385.5 245.3,395.8 217.3,367.7 227.6,329.4 265.9,319.1 		"/>
			<polygon class="st2" points="294.6,346.3 284.7,385.6 245.7,396.7 216.6,368.5 226.5,329.2 265.5,318.1 		"/>
			<polygon class="st2" points="295.6,346.5 285,386.6 245.1,397.5 215.6,368.3 226.2,328.3 266.2,317.4 		"/>
			<polygon class="st2" points="295.9,345.6 286,386.4 245.7,398.2 215.3,369.2 225.3,328.5 265.5,316.7 		"/>
			<polygon class="st2" points="296.2,345 286.6,386.4 246.1,398.8 215,369.8 224.6,328.5 265.2,316.1 		"/>
			<polygon class="st2" points="296.2,344.8 286.9,386.2 246.3,398.9 215,370.1 224.3,328.6 264.9,316 		"/>
			<polygon class="st2" points="296.5,343.9 287.8,386 246.9,399.6 214.7,371 223.4,328.8 264.3,315.3 		"/>
			<polygon class="st2" points="296.9,342.3 289.4,385.7 248,400.8 214.3,372.5 221.9,329.2 263.2,314.1 		"/>
			<polygon class="st2" points="296.9,342.3 289.4,385.7 248,400.8 214.3,372.5 221.9,329.2 263.2,314.1 		"/>
			<polygon class="st2" points="296.9,342.3 289.4,385.7 248,400.8 214.3,372.5 221.9,329.2 263.2,314.1 		"/>
			<polygon class="st2" points="297.1,342 289.7,385.6 248.3,401.1 214.2,372.9 221.5,329.3 263,313.8 		"/>
			<polygon class="st2" points="297.1,342 289.7,385.6 248.3,401.1 214.2,372.9 221.5,329.3 263,313.8 		"/>
			<polygon class="st2" points="298,340.3 291.6,385.6 249.3,402.7 213.2,374.6 219.6,329.3 261.9,312.2 		"/>
			<polygon class="st2" points="298,339.1 292.7,385 250.3,403.3 213.2,375.8 218.5,329.9 260.9,311.6 		"/>
			<polygon class="st2" points="298,339 292.8,384.9 250.4,403.4 213.2,375.9 218.4,330 260.8,311.5 		"/>
			<polygon class="st2" points="299.2,338.3 294,385.6 250.4,404.8 212,376.6 217.2,329.3 260.8,310.1 		"/>
			<polygon class="st2" points="298,336 295.4,383.4 253,404.9 213.2,378.9 215.8,331.5 258.2,310 		"/>
			<polygon class="st2" points="296.9,334.6 296,381.8 254.7,404.6 214.3,380.3 215.2,333.1 256.5,310.2 		"/>
			<polygon class="st2" points="296.9,334.6 296,381.8 254.7,404.6 214.3,380.3 215.2,333.1 256.5,310.2 		"/>
			<polygon class="st2" points="296.9,334.6 296,381.8 254.7,404.6 214.3,380.3 215.2,333.1 256.5,310.2 		"/>
			<polygon class="st2" points="295.9,336 294.3,381.6 254.1,403 215.3,378.9 216.9,333.3 257.2,311.8 		"/>
			<polygon class="st2" points="295.6,336 294.2,381.3 254.2,402.8 215.6,378.9 217,333.5 257,312.1 		"/>
			<polygon class="st2" points="295.3,336 294,381.1 254.4,402.5 215.9,378.9 217.2,333.8 256.9,312.3 		"/>
			<polygon class="st2" points="295,336 293.9,380.8 254.5,402.3 216.2,378.9 217.3,334.1 256.7,312.6 		"/>
			<polygon class="st2" points="294.4,337 292.7,380.8 253.9,401.2 216.8,377.9 218.5,334.1 257.3,313.6 		"/>
			<polygon class="st2" points="294.1,337.3 292.3,380.7 253.8,400.8 217.1,377.6 218.9,334.2 257.4,314 		"/>
			<polygon class="st2" points="293.8,337.9 291.6,380.7 253.4,400.3 217.4,377 219.6,334.1 257.8,314.6 		"/>
			<polygon class="st2" points="293.1,339.1 290.2,380.7 252.8,399 218.2,375.8 221,334.2 258.5,315.8 		"/>
			<polygon class="st2" points="293.1,339.1 290.2,380.7 252.8,399 218.2,375.8 221,334.2 258.5,315.8 		"/>
			<polygon class="st2" points="293.1,339.1 290.2,380.7 252.8,399 218.2,375.8 221,334.2 258.5,315.8 		"/>
			<polygon class="st2" points="291.1,339.1 289.2,379 253.7,397.4 220.1,375.8 222,335.9 257.5,317.5 		"/>
			<polygon class="st2" points="291.1,339.1 289.2,379 253.7,397.4 220.1,375.8 222,335.9 257.5,317.5 		"/>
			<polygon class="st2" points="290.5,340.6 287.7,379.2 252.7,396.1 220.7,374.3 223.6,335.6 258.5,318.8 		"/>
			<polygon class="st2" points="290.2,340.9 287.3,379.1 252.6,395.7 221,374 224,335.7 258.6,319.2 		"/>
			<polygon class="st2" points="289.5,341.4 286.4,378.7 252.6,394.8 221.8,373.5 224.8,336.2 258.6,320.1 		"/>
			<polygon class="st2" points="289.3,341.5 286.3,378.7 252.6,394.6 221.9,373.4 224.9,336.2 258.7,320.2 		"/>
			<polygon class="st2" points="288.7,341.8 285.7,378.3 252.6,394 222.5,373.1 225.5,336.6 258.6,320.9 		"/>
			<polygon class="st2" points="288.4,342.1 285.3,378.2 252.5,393.6 222.8,372.8 225.9,336.7 258.7,321.3 		"/>
			<polygon class="st2" points="287.8,342.7 284.5,378 252.3,392.7 223.4,372.2 226.7,336.9 258.9,322.1 		"/>
			<polygon class="st2" points="287.6,342.7 284.4,377.7 252.4,392.5 223.7,372.2 226.9,337.2 258.8,322.4 		"/>
			<polygon class="st2" points="287.3,343 284,377.6 252.3,392.1 224,371.9 227.3,337.3 258.9,322.8 		"/>
			<polygon class="st2" points="287,343.3 283.6,377.5 252.2,391.7 224.3,371.6 227.7,337.4 259,323.2 		"/>
			<polygon class="st2" points="286.4,343.3 283.3,377 252.5,391.2 224.9,371.6 228,337.9 258.7,323.7 		"/>
			<polygon class="st2" points="286.1,343.9 282.6,377 252.1,390.6 225.2,371 228.6,337.8 259.1,324.3 		"/>
			<polygon class="st2" points="285.8,344.2 282.2,376.9 252,390.2 225.5,370.7 229,338 259.2,324.7 		"/>
			<polygon class="st2" points="284,345.9 279.8,376.3 251.4,387.8 227.2,368.9 231.5,338.6 259.8,327.1 		"/>
			<polygon class="st2" points="283.7,346.2 279.3,376.2 251.3,387.4 227.5,368.6 231.9,338.7 260,327.5 		"/>
			<polygon class="st2" points="283.7,346.2 279.3,376.2 251.3,387.4 227.5,368.6 231.9,338.7 260,327.5 		"/>
			<polygon class="st2" points="289.3,332.9 293.8,374.4 260,398.9 221.9,382 217.5,340.5 251.2,315.9 		"/>
			<polygon class="st2" points="289.9,332.9 294.1,374.9 259.7,399.4 221.3,382 217.2,340 251.5,315.4 		"/>
			<polygon class="st2" points="289.9,331.7 295.1,374.3 260.8,400 221.3,383.2 216.1,340.6 250.5,314.8 		"/>
			<polygon class="st2" points="289.9,331.4 295.3,374.1 261,400.2 221.3,383.5 215.9,340.7 250.2,314.7 		"/>
			<polygon class="st2" points="290.2,331.4 295.5,374.4 260.9,400.5 221,383.5 215.7,340.5 250.3,314.4 		"/>
			<polygon class="st2" points="290.2,329.6 297,373.5 262.4,401.3 221,385.3 214.2,341.4 248.8,313.5 		"/>
			<polygon class="st2" points="290.2,329.6 297,373.5 262.4,401.3 221,385.3 214.2,341.4 248.8,313.5 		"/>
			<polygon class="st2" points="290.2,329.3 297.3,373.3 262.7,401.5 221,385.6 213.9,341.5 248.5,313.4 		"/>
			<polygon class="st2" points="290.2,329 297.6,373.2 262.9,401.6 221,385.9 213.7,341.7 248.3,313.2 		"/>
			<polygon class="st2" points="290.2,328.7 297.8,373 263.2,401.8 221,386.2 213.4,341.8 248,313.1 		"/>
			<polygon class="st2" points="290.2,328.4 298.1,372.9 263.4,401.9 221,386.5 213.2,342 247.8,312.9 		"/>
			<animateTransform attributeName="transform"
                          attributeType="XML"
                          type="rotate"
                          from="0 455.9 457.9"
                          to="-360 455.9 457.9"
                          dur="5s"
                          repeatCount="indefinite"/>
		</g>
		<g class="st1">
			<polygon class="st2" points="459.1,243.2 457.3,243 456.6,241.4 457.6,240 459.4,240.2 460.1,241.8 		"/>
			<polygon class="st2" points="459.1,243.2 457.3,243 456.6,241.4 457.6,240 459.4,240.2 460.1,241.8 		"/>
			<polygon class="st2" points="459.1,243.5 457.1,243.2 456.3,241.3 457.6,239.7 459.6,240 460.3,241.9 		"/>
			<polygon class="st2" points="459.1,243.8 456.8,243.3 456.1,241.1 457.6,239.4 459.9,239.9 460.6,242.1 		"/>
			<polygon class="st2" points="459.1,243.8 456.8,243.3 456.1,241.1 457.6,239.4 459.9,239.9 460.6,242.1 		"/>
			<polygon class="st2" points="460.8,243.8 457.7,244.9 455.2,242.7 455.8,239.4 459,238.3 461.5,240.5 		"/>
			<polygon class="st2" points="462.8,244.4 458.2,246.9 453.7,244.1 453.9,238.8 458.5,236.3 463,239.1 		"/>
			<polygon class="st2" points="465,245.9 458,249.5 451.3,245.2 451.7,237.3 458.7,233.7 465.4,238 		"/>
			<polygon class="st2" points="468.3,245.9 459.6,252.3 449.7,248.1 448.4,237.3 457.1,230.9 467,235.1 		"/>
			<polygon class="st2" points="470.4,245.9 460.7,254.1 448.6,249.9 446.3,237.3 456,229.1 468,233.3 		"/>
			<polygon class="st2" points="472.4,245.9 461.7,255.9 447.6,251.7 444.2,237.3 455,227.3 469.1,231.5 		"/>
			<polygon class="st2" points="473.9,245.9 462.4,257.2 446.9,252.9 442.8,237.3 454.3,226 469.8,230.3 		"/>
			<polygon class="st2" points="473.9,245.9 462.4,257.2 446.9,252.9 442.8,237.3 454.3,226 469.8,230.3 		"/>
			<polygon class="st2" points="475.4,245.9 463.2,258.5 446.1,254.3 441.3,237.3 453.5,224.7 470.6,228.9 		"/>
			<polygon class="st2" points="477.2,245.9 464.1,260.1 445.2,255.8 439.5,237.3 452.6,223.1 471.5,227.4 		"/>
			<polygon class="st2" points="479,245.9 465,261.6 444.3,257.3 437.7,237.3 451.7,221.6 472.4,225.9 		"/>
			<polygon class="st2" points="480.9,245.9 465.9,263.3 443.3,259 435.7,237.3 450.7,219.9 473.3,224.2 		"/>
			<polygon class="st2" points="480.9,245.9 465.9,263.3 443.3,259 435.7,237.3 450.7,219.9 473.3,224.2 		"/>
			<polygon class="st2" points="482.2,244.9 467.4,263.9 443.5,260.6 434.5,238.3 449.3,219.3 473.2,222.6 		"/>
			<polygon class="st2" points="483.5,244 468.8,264.6 443.7,262.2 433.2,239.2 447.9,218.6 473,221 		"/>
			<polygon class="st2" points="484.6,244.4 469.1,265.8 442.8,263 432,238.8 447.6,217.4 473.9,220.2 		"/>
			<polygon class="st2" points="485.2,244.1 469.6,266.1 442.7,263.6 431.5,239.1 447,217.1 473.9,219.6 		"/>
			<polygon class="st2" points="486.7,243.8 470.6,267.3 442.3,265.1 430,239.4 446,215.9 474.4,218.1 		"/>
			<polygon class="st2" points="487.9,242.8 472.1,267.8 442.5,266.6 428.7,240.4 444.5,215.4 474.1,216.6 		"/>
			<polygon class="st2" points="487.6,243.2 471.6,267.7 442.3,266.2 429.1,240 445.1,215.5 474.3,217 		"/>
			<polygon class="st2" points="488.2,242.9 472.2,268.1 442.3,266.8 428.5,240.3 444.5,215.1 474.4,216.4 		"/>
			<polygon class="st2" points="488.5,242.6 472.6,268.2 442.4,267.2 428.2,240.6 444.1,215 474.3,216 		"/>
			<polygon class="st2" points="489.4,241.6 473.9,268.5 442.8,268.5 427.3,241.6 442.8,214.7 473.9,214.7 		"/>
			<polygon class="st2" points="489.7,241.6 474,268.7 442.7,268.7 427,241.6 442.7,214.5 474,214.5 		"/>
			<polygon class="st2" points="490,241.6 474.2,269 442.5,269 426.7,241.6 442.5,214.2 474.1,214.2 		"/>
			<polygon class="st2" points="490.3,241.6 474.3,269.3 442.4,269.3 426.4,241.6 442.3,213.9 474.3,213.9 		"/>
			<polygon class="st2" points="491.2,241.6 474.8,270 441.9,270 425.5,241.6 441.9,213.2 474.7,213.2 		"/>
			<polygon class="st2" points="491.5,241.6 474.9,270.3 441.8,270.3 425.2,241.6 441.8,212.9 474.9,212.9 		"/>
			<polygon class="st2" points="491.5,240.2 476.1,269.6 443,271 425.2,243 440.6,213.6 473.7,212.2 		"/>
			<polygon class="st2" points="492.1,239.6 476.9,269.8 443.2,271.8 424.6,243.6 439.8,213.4 473.5,211.4 		"/>
			<polygon class="st2" points="492.4,239.3 477.3,269.9 443.3,272.2 424.3,243.9 439.4,213.3 473.4,211 		"/>
			<polygon class="st2" points="492.7,239.3 477.5,270.2 443.2,272.5 424,243.9 439.2,213 473.5,210.7 		"/>
			<polygon class="st2" points="493,239 477.9,270.3 443.3,272.9 423.7,244.2 438.8,212.9 473.4,210.3 		"/>
			<polygon class="st2" points="493.6,238.4 478.7,270.5 443.5,273.7 423.1,244.8 438,212.7 473.2,209.5 		"/>
			<polygon class="st2" points="494.1,237.8 479.5,270.7 443.7,274.5 422.5,245.4 437.2,212.5 473,208.7 		"/>
			<polygon class="st2" points="494.1,237.5 479.8,270.6 444,274.6 422.5,245.7 436.9,212.6 472.7,208.6 		"/>
			<polygon class="st2" points="494.1,237.5 479.8,270.6 444,274.6 422.5,245.7 436.9,212.6 472.7,208.6 		"/>
			<polygon class="st2" points="494.4,237.5 479.9,270.8 443.8,274.9 422.2,245.7 436.8,212.4 472.9,208.3 		"/>
			<polygon class="st2" points="495,236.9 480.7,271.1 444,275.7 421.6,246.3 436,212.1 472.7,207.5 		"/>
			<polygon class="st2" points="495,236.6 481,270.9 444.3,275.9 421.6,246.6 435.7,212.3 472.4,207.3 		"/>
			<polygon class="st2" points="496.5,236.3 482,272 443.8,277.3 420.2,246.9 434.7,211.2 472.9,205.9 		"/>
			<polygon class="st2" points="496.5,236.1 482.2,271.9 444.1,277.4 420.2,247.1 434.4,211.3 472.6,205.8 		"/>
			<polygon class="st2" points="496.5,235.5 482.8,271.6 444.6,277.7 420.2,247.7 433.9,211.6 472.1,205.5 		"/>
			<polygon class="st2" points="496.5,235.2 483,271.5 444.8,277.9 420.2,248 433.7,211.7 471.9,205.3 		"/>
			<polygon class="st2" points="496.5,234.9 483.3,271.3 445.1,278 420.2,248.3 433.4,211.9 471.6,205.2 		"/>
			<polygon class="st2" points="496.5,234.3 483.8,271 445.6,278.3 420.2,248.9 432.9,212.2 471.1,204.9 		"/>
			<polygon class="st2" points="496.7,233.4 484.6,270.7 446.3,278.9 420,249.8 432,212.5 470.4,204.3 		"/>
			<polygon class="st2" points="496.7,232.8 485.1,270.4 446.8,279.2 420,250.4 431.5,212.8 469.9,204 		"/>
			<polygon class="st2" points="496.7,232.5 485.4,270.2 447.1,279.4 420,250.7 431.3,213 469.6,203.8 		"/>
			<polygon class="st2" points="496.7,231.4 486.4,269.7 448,279.9 420,251.8 430.3,213.5 468.6,203.3 		"/>
			<polygon class="st2" points="496.7,231.4 486.4,269.7 448,279.9 420,251.8 430.3,213.5 468.6,203.3 		"/>
			<polygon class="st2" points="497.3,230.5 487.4,269.8 448.5,280.9 419.4,252.7 429.2,213.4 468.2,202.3 		"/>
			<polygon class="st2" points="498.3,230.7 487.8,270.8 447.8,281.7 418.4,252.5 428.9,212.4 468.9,201.5 		"/>
			<polygon class="st2" points="498.6,229.8 488.7,270.6 448.4,282.4 418.1,253.4 428,212.6 468.3,200.8 		"/>
			<polygon class="st2" points="498.9,229.2 489.3,270.5 448.8,282.9 417.8,254 427.3,212.7 467.9,200.3 		"/>
			<polygon class="st2" points="498.9,228.9 489.6,270.4 449,283.1 417.8,254.3 427.1,212.8 467.6,200.1 		"/>
			<polygon class="st2" points="499.2,228 490.5,270.2 449.7,283.8 417.5,255.2 426.1,213 467,199.4 		"/>
			<polygon class="st2" points="499.6,226.5 492.1,269.8 450.8,284.9 417,256.7 424.6,213.4 465.9,198.3 		"/>
			<polygon class="st2" points="499.6,226.5 492.1,269.8 450.8,284.9 417,256.7 424.6,213.4 465.9,198.3 		"/>
			<polygon class="st2" points="499.6,226.5 492.1,269.8 450.8,284.9 417,256.7 424.6,213.4 465.9,198.3 		"/>
			<polygon class="st2" points="499.8,226.1 492.5,269.8 451,285.2 416.9,257.1 424.2,213.4 465.7,198 		"/>
			<polygon class="st2" points="499.8,226.1 492.5,269.8 451,285.2 416.9,257.1 424.2,213.4 465.7,198 		"/>
			<polygon class="st2" points="500.7,224.5 494.4,269.7 452,286.9 416,258.7 422.3,213.5 464.7,196.3 		"/>
			<polygon class="st2" points="500.7,223.3 495.4,269.1 453,287.5 416,259.9 421.3,214.1 463.6,195.7 		"/>
			<polygon class="st2" points="500.7,223.1 495.5,269.1 453.1,287.5 416,260.1 421.2,214.1 463.5,195.7 		"/>
			<polygon class="st2" points="501.9,222.4 496.7,269.8 453.1,288.9 414.8,260.8 419.9,213.4 463.5,194.3 		"/>
			<polygon class="st2" points="500.7,220.1 498.1,267.6 455.7,289 416,263.1 418.6,215.6 460.9,194.2 		"/>
			<polygon class="st2" points="499.6,218.8 498.8,266 457.5,288.8 417,264.4 417.9,217.2 459.2,194.4 		"/>
			<polygon class="st2" points="499.6,218.8 498.8,266 457.5,288.8 417,264.4 417.9,217.2 459.2,194.4 		"/>
			<polygon class="st2" points="499.6,218.8 498.8,266 457.5,288.8 417,264.4 417.9,217.2 459.2,194.4 		"/>
			<polygon class="st2" points="498.6,220.1 497.1,265.7 456.8,287.2 418.1,263.1 419.6,217.5 459.9,196 		"/>
			<polygon class="st2" points="498.3,220.1 496.9,265.5 456.9,286.9 418.4,263.1 419.8,217.7 459.7,196.3 		"/>
			<polygon class="st2" points="498,220.1 496.8,265.2 457.1,286.7 418.7,263.1 419.9,218 459.6,196.5 		"/>
			<polygon class="st2" points="497.7,220.1 496.6,265 457.2,286.4 419,263.1 420.1,218.2 459.4,196.8 		"/>
			<polygon class="st2" points="497.1,221.2 495.4,265 456.6,285.4 419.6,262 421.3,218.2 460,197.8 		"/>
			<polygon class="st2" points="496.8,221.5 495,264.9 456.5,285 419.9,261.7 421.7,218.3 460.2,198.2 		"/>
			<polygon class="st2" points="496.5,222.1 494.3,264.9 456.2,284.4 420.2,261.1 422.3,218.3 460.5,198.8 		"/>
			<polygon class="st2" points="495.8,223.3 492.9,264.9 455.5,283.2 420.9,259.9 423.7,218.3 461.2,200 		"/>
			<polygon class="st2" points="495.8,223.3 492.9,264.9 455.5,283.2 420.9,259.9 423.7,218.3 461.2,200 		"/>
			<polygon class="st2" points="495.8,223.3 492.9,264.9 455.5,283.2 420.9,259.9 423.7,218.3 461.2,200 		"/>
			<polygon class="st2" points="493.8,223.3 492,263.2 456.5,281.5 422.8,259.9 424.7,220 460.2,201.7 		"/>
			<polygon class="st2" points="493.8,223.3 492,263.2 456.5,281.5 422.8,259.9 424.7,220 460.2,201.7 		"/>
			<polygon class="st2" points="493.3,224.8 490.4,263.4 455.5,280.3 423.4,258.4 426.3,219.8 461.2,202.9 		"/>
			<polygon class="st2" points="493,225 490,263.3 455.4,279.9 423.7,258.2 426.7,219.9 461.3,203.3 		"/>
			<polygon class="st2" points="492.2,225.5 489.2,262.9 455.3,278.9 424.5,257.7 427.5,220.3 461.3,204.3 		"/>
			<polygon class="st2" points="492.1,225.6 489,262.8 455.3,278.8 424.6,257.6 427.7,220.4 461.4,204.4 		"/>
			<polygon class="st2" points="491.5,225.9 488.5,262.5 455.3,278.1 425.2,257.3 428.2,220.7 461.3,205.1 		"/>
			<polygon class="st2" points="491.2,226.2 488.1,262.4 455.2,277.7 425.5,257 428.6,220.8 461.5,205.5 		"/>
			<polygon class="st2" points="490.6,226.8 487.2,262.1 455,276.9 426.1,256.4 429.4,221.1 461.7,206.3 		"/>
			<polygon class="st2" points="490.3,226.8 487.1,261.9 455.2,276.6 426.4,256.4 429.6,221.3 461.5,206.6 		"/>
			<polygon class="st2" points="490,227.1 486.7,261.8 455,276.2 426.7,256.1 430,221.4 461.6,207 		"/>
			<polygon class="st2" points="489.7,227.4 486.3,261.7 454.9,275.8 427,255.8 430.4,221.5 461.7,207.4 		"/>
			<polygon class="st2" points="489.1,227.4 486,261.1 455.2,275.3 427.6,255.8 430.7,222.1 461.4,207.9 		"/>
			<polygon class="st2" points="488.8,228 485.3,261.2 454.9,274.8 427.9,255.2 431.4,222 461.8,208.4 		"/>
			<polygon class="st2" points="488.5,228.3 484.9,261.1 454.8,274.4 428.2,254.9 431.8,222.1 461.9,208.8 		"/>
			<polygon class="st2" points="486.7,230.1 482.5,260.4 454.1,271.9 430,253.1 434.2,222.8 462.6,211.3 		"/>
			<polygon class="st2" points="486.4,230.4 482.1,260.3 454,271.5 430.3,252.8 434.6,222.9 462.7,211.7 		"/>
			<polygon class="st2" points="486.4,230.4 482.1,260.3 454,271.5 430.3,252.8 434.6,222.9 462.7,211.7 		"/>
			<polygon class="st2" points="492.1,217 496.5,258.5 462.8,283.1 424.6,266.2 420.2,224.7 453.9,200.1 		"/>
			<polygon class="st2" points="492.7,217 496.8,259 462.5,283.6 424,266.2 419.9,224.2 454.2,199.6 		"/>
			<polygon class="st2" points="492.7,215.8 497.8,258.4 463.5,284.2 424,267.4 418.9,224.8 453.2,199 		"/>
			<polygon class="st2" points="492.7,215.5 498.1,258.3 463.8,284.4 424,267.7 418.6,224.9 452.9,198.8 		"/>
			<polygon class="st2" points="493,215.5 498.2,258.5 463.6,284.6 423.7,267.7 418.5,224.7 453.1,198.6 		"/>
			<polygon class="st2" points="493,213.8 499.8,257.7 465.1,285.5 423.7,269.4 416.9,225.5 451.5,197.7 		"/>
			<polygon class="st2" points="493,213.8 499.8,257.7 465.1,285.5 423.7,269.4 416.9,225.5 451.5,197.7 		"/>
			<polygon class="st2" points="493,213.5 500,257.5 465.4,285.7 423.7,269.7 416.7,225.7 451.3,197.5 		"/>
			<polygon class="st2" points="493,213.2 500.3,257.4 465.7,285.8 423.7,270 416.4,225.8 451,197.4 		"/>
			<polygon class="st2" points="493,212.9 500.5,257.2 465.9,286 423.7,270.3 416.1,226 450.8,197.2 		"/>
			<polygon class="st2" points="493,212.6 500.8,257.1 466.2,286.1 423.7,270.6 415.9,226.1 450.5,197.1 		"/>
			<animateTransform attributeName="transform"
                          attributeType="XML"
                          type="rotate"
                          from="0 455.9 457.9"
                          to="360 455.9 457.9"
                          dur="10s"
                          repeatCount="indefinite"/>
		</g>
		<g class="st1">
			<polygon class="st2" points="654,359 652.3,358.9 651.6,357.3 652.6,355.8 654.3,356 655,357.6 		"/>
			<polygon class="st2" points="654,359 652.3,358.9 651.6,357.3 652.6,355.8 654.3,356 655,357.6 		"/>
			<polygon class="st2" points="654,359.3 652,359 651.3,357.1 652.6,355.6 654.6,355.9 655.3,357.8 		"/>
			<polygon class="st2" points="654,359.6 651.8,359.2 651,357 652.6,355.3 654.8,355.7 655.5,357.9 		"/>
			<polygon class="st2" points="654,359.6 651.8,359.2 651,357 652.6,355.3 654.8,355.7 655.5,357.9 		"/>
			<polygon class="st2" points="655.8,359.6 652.7,360.7 650.2,358.5 650.8,355.3 653.9,354.2 656.4,356.4 		"/>
			<polygon class="st2" points="657.8,360.2 653.1,362.7 648.7,359.9 648.8,354.7 653.5,352.2 657.9,355 		"/>
			<polygon class="st2" points="660,361.7 652.9,365.3 646.3,361.1 646.6,353.2 653.7,349.5 660.3,353.8 		"/>
			<polygon class="st2" points="663.2,361.7 654.6,368.2 644.6,363.9 643.4,353.2 652,346.7 662,351 		"/>
			<polygon class="st2" points="665.3,361.7 655.6,370 643.6,365.7 641.3,353.2 651,344.9 663,349.2 		"/>
			<polygon class="st2" points="667.4,361.7 656.7,371.8 642.6,367.5 639.2,353.2 649.9,343.1 664,347.4 		"/>
			<polygon class="st2" points="668.8,361.7 657.4,373 641.8,368.8 637.8,353.2 649.2,341.8 664.8,346.1 		"/>
			<polygon class="st2" points="668.8,361.7 657.4,373 641.8,368.8 637.8,353.2 649.2,341.8 664.8,346.1 		"/>
			<polygon class="st2" points="670.4,361.7 658.1,374.4 641.1,370.1 636.2,353.2 648.4,340.5 665.5,344.8 		"/>
			<polygon class="st2" points="672.2,361.7 659,375.9 640.2,371.6 634.4,353.2 647.6,339 666.4,343.2 		"/>
			<polygon class="st2" points="673.9,361.7 659.9,377.4 639.3,373.2 632.7,353.2 646.7,337.4 667.3,341.7 		"/>
			<polygon class="st2" points="675.9,361.7 660.9,379.1 638.3,374.9 630.7,353.2 645.7,335.7 668.3,340 		"/>
			<polygon class="st2" points="675.9,361.7 660.9,379.1 638.3,374.9 630.7,353.2 645.7,335.7 668.3,340 		"/>
			<polygon class="st2" points="677.2,360.8 662.4,379.8 638.5,376.5 629.4,354.1 644.2,335.1 668.1,338.4 		"/>
			<polygon class="st2" points="678.4,359.8 663.8,380.4 638.7,378 628.2,355 642.8,334.5 667.9,336.9 		"/>
			<polygon class="st2" points="679.6,360.2 664,381.6 637.7,378.8 627,354.7 642.6,333.3 668.8,336.1 		"/>
			<polygon class="st2" points="680.2,359.9 664.6,382 637.7,379.5 626.4,355 642,332.9 668.9,335.4 		"/>
			<polygon class="st2" points="681.7,359.6 665.6,383.1 637.2,380.9 624.9,355.3 641,331.8 669.4,334 		"/>
			<polygon class="st2" points="682.9,358.6 667.1,383.6 637.5,382.5 623.7,356.3 639.5,331.2 669.1,332.4 		"/>
			<polygon class="st2" points="682.6,359 666.6,383.6 637.3,382 624,355.8 640,331.3 669.3,332.9 		"/>
			<polygon class="st2" points="683.2,358.7 667.1,383.9 637.2,382.7 623.4,356.1 639.5,330.9 669.3,332.2 		"/>
			<polygon class="st2" points="683.5,358.4 667.5,384.1 637.4,383.1 623.1,356.4 639.1,330.8 669.2,331.8 		"/>
			<polygon class="st2" points="684.3,357.4 668.8,384.3 637.8,384.3 622.2,357.4 637.8,330.5 668.8,330.5 		"/>
			<polygon class="st2" points="684.6,357.4 669,384.6 637.6,384.6 621.9,357.4 637.6,330.3 669,330.3 		"/>
			<polygon class="st2" points="684.9,357.4 669.1,384.8 637.5,384.9 621.6,357.5 637.5,330 669.1,330 		"/>
			<polygon class="st2" points="685.2,357.4 669.3,385.1 637.3,385.1 621.4,357.5 637.3,329.8 669.2,329.8 		"/>
			<polygon class="st2" points="686.1,357.4 669.7,385.9 636.9,385.9 620.5,357.5 636.9,329 669.7,329 		"/>
			<polygon class="st2" points="686.4,357.4 669.9,386.1 636.7,386.1 620.2,357.5 636.7,328.8 669.8,328.7 		"/>
			<polygon class="st2" points="686.4,356 671.1,385.4 637.9,386.8 620.2,358.8 635.5,329.4 668.7,328 		"/>
			<polygon class="st2" points="687,355.5 671.9,385.7 638.1,387.6 619.6,359.4 634.7,329.2 668.4,327.2 		"/>
			<polygon class="st2" points="687.3,355.2 672.3,385.8 638.3,388 619.3,359.7 634.3,329.1 668.3,326.8 		"/>
			<polygon class="st2" points="687.6,355.2 672.4,386 638.1,388.3 619,359.7 634.2,328.9 668.5,326.6 		"/>
			<polygon class="st2" points="687.9,354.9 672.8,386.1 638.2,388.7 618.7,360 633.8,328.7 668.4,326.2 		"/>
			<polygon class="st2" points="688.5,354.3 673.6,386.3 638.4,389.5 618.1,360.6 632.9,328.5 668.2,325.4 		"/>
			<polygon class="st2" points="689.1,353.7 674.5,386.6 638.7,390.3 617.5,361.2 632.1,328.3 667.9,324.5 		"/>
			<polygon class="st2" points="689.1,353.4 674.7,386.4 638.9,390.5 617.5,361.5 631.9,328.5 667.7,324.4 		"/>
			<polygon class="st2" points="689.1,353.4 674.7,386.4 638.9,390.5 617.5,361.5 631.9,328.5 667.7,324.4 		"/>
			<polygon class="st2" points="689.4,353.4 674.9,386.7 638.8,390.7 617.2,361.5 631.7,328.2 667.8,324.1 		"/>
			<polygon class="st2" points="690,352.8 675.7,386.9 639,391.5 616.6,362.1 630.9,328 667.6,323.3 		"/>
			<polygon class="st2" points="690,352.5 675.9,386.7 639.2,391.7 616.6,362.4 630.7,328.1 667.4,323.2 		"/>
			<polygon class="st2" points="691.5,352.2 676.9,387.9 638.7,393.1 615.1,362.7 629.7,327 667.8,321.7 		"/>
			<polygon class="st2" points="691.5,351.9 677.2,387.7 639,393.3 615.1,363 629.4,327.1 667.6,321.6 		"/>
			<polygon class="st2" points="691.5,351.3 677.7,387.4 639.5,393.6 615.1,363.6 628.9,327.4 667.1,321.3 		"/>
			<polygon class="st2" points="691.5,351 678,387.3 639.8,393.7 615.1,363.9 628.6,327.6 666.8,321.1 		"/>
			<polygon class="st2" points="691.5,350.7 678.2,387.1 640,393.9 615.1,364.2 628.4,327.7 666.6,321 		"/>
			<polygon class="st2" points="691.5,350.1 678.7,386.8 640.6,394.2 615.1,364.8 627.9,328 666,320.7 		"/>
			<polygon class="st2" points="691.6,349.2 679.6,386.5 641.3,394.7 615,365.7 627,328.3 665.3,320.1 		"/>
			<polygon class="st2" points="691.6,348.6 680.1,386.2 641.8,395 615,366.3 626.5,328.6 664.8,319.8 		"/>
			<polygon class="st2" points="691.6,348.3 680.4,386.1 642,395.2 615,366.6 626.2,328.8 664.6,319.7 		"/>
			<polygon class="st2" points="691.6,347.2 681.3,385.5 643,395.8 615,367.7 625.3,329.4 663.6,319.1 		"/>
			<polygon class="st2" points="691.6,347.2 681.3,385.5 643,395.8 615,367.7 625.3,329.4 663.6,319.1 		"/>
			<polygon class="st2" points="692.3,346.3 682.4,385.6 643.4,396.7 614.3,368.5 624.2,329.2 663.2,318.1 		"/>
			<polygon class="st2" points="693.3,346.5 682.7,386.6 642.7,397.5 613.3,368.3 623.9,328.3 663.8,317.4 		"/>
			<polygon class="st2" points="693.6,345.6 683.6,386.4 643.4,398.2 613,369.2 622.9,328.5 663.2,316.7 		"/>
			<polygon class="st2" points="693.9,345 684.3,386.4 643.7,398.8 612.7,369.8 622.3,328.5 662.8,316.1 		"/>
			<polygon class="st2" points="693.9,344.8 684.6,386.2 644,398.9 612.7,370.1 622,328.6 662.6,316 		"/>
			<polygon class="st2" points="694.2,343.9 685.5,386 644.6,399.6 612.4,371 621.1,328.8 662,315.3 		"/>
			<polygon class="st2" points="694.6,342.3 687,385.7 645.7,400.8 612,372.5 619.6,329.2 660.9,314.1 		"/>
			<polygon class="st2" points="694.6,342.3 687,385.7 645.7,400.8 612,372.5 619.6,329.2 660.9,314.1 		"/>
			<polygon class="st2" points="694.6,342.3 687,385.7 645.7,400.8 612,372.5 619.6,329.2 660.9,314.1 		"/>
			<polygon class="st2" points="694.8,342 687.4,385.6 645.9,401.1 611.8,372.9 619.2,329.3 660.6,313.8 		"/>
			<polygon class="st2" points="694.8,342 687.4,385.6 645.9,401.1 611.8,372.9 619.2,329.3 660.6,313.8 		"/>
			<polygon class="st2" points="695.7,340.3 689.3,385.6 647,402.7 610.9,374.6 617.3,329.3 659.6,312.2 		"/>
			<polygon class="st2" points="695.7,339.1 690.4,385 648,403.3 610.9,375.8 616.2,329.9 658.6,311.6 		"/>
			<polygon class="st2" points="695.7,339 690.5,384.9 648.1,403.4 610.9,375.9 616.1,330 658.5,311.5 		"/>
			<polygon class="st2" points="696.9,338.3 691.7,385.6 648.1,404.8 609.7,376.6 614.9,329.3 658.5,310.1 		"/>
			<polygon class="st2" points="695.7,336 693.1,383.4 650.7,404.9 610.9,378.9 613.5,331.5 655.9,310 		"/>
			<polygon class="st2" points="694.6,334.6 693.7,381.8 652.4,404.6 612,380.3 612.9,333.1 654.2,310.2 		"/>
			<polygon class="st2" points="694.6,334.6 693.7,381.8 652.4,404.6 612,380.3 612.9,333.1 654.2,310.2 		"/>
			<polygon class="st2" points="694.6,334.6 693.7,381.8 652.4,404.6 612,380.3 612.9,333.1 654.2,310.2 		"/>
			<polygon class="st2" points="693.6,336 692,381.6 651.7,403 613,378.9 614.6,333.3 654.8,311.8 		"/>
			<polygon class="st2" points="693.3,336 691.9,381.3 651.9,402.8 613.3,378.9 614.7,333.5 654.7,312.1 		"/>
			<polygon class="st2" points="693,336 691.7,381.1 652,402.5 613.6,378.9 614.9,333.8 654.5,312.3 		"/>
			<polygon class="st2" points="692.7,336 691.6,380.8 652.2,402.3 613.9,378.9 615,334.1 654.4,312.6 		"/>
			<polygon class="st2" points="692.1,337 690.4,380.8 651.6,401.2 614.5,377.9 616.2,334.1 655,313.6 		"/>
			<polygon class="st2" points="691.8,337.3 690,380.7 651.5,400.8 614.8,377.6 616.6,334.2 655.1,314 		"/>
			<polygon class="st2" points="691.5,337.9 689.3,380.7 651.1,400.3 615.1,377 617.3,334.1 655.5,314.6 		"/>
			<polygon class="st2" points="690.7,339.1 687.9,380.7 650.4,399 615.8,375.8 618.7,334.2 656.1,315.8 		"/>
			<polygon class="st2" points="690.7,339.1 687.9,380.7 650.4,399 615.8,375.8 618.7,334.2 656.1,315.8 		"/>
			<polygon class="st2" points="690.7,339.1 687.9,380.7 650.4,399 615.8,375.8 618.7,334.2 656.1,315.8 		"/>
			<polygon class="st2" points="688.8,339.1 686.9,379 651.4,397.4 617.8,375.8 619.7,335.9 655.2,317.5 		"/>
			<polygon class="st2" points="688.8,339.1 686.9,379 651.4,397.4 617.8,375.8 619.7,335.9 655.2,317.5 		"/>
			<polygon class="st2" points="688.2,340.6 685.3,379.2 650.4,396.1 618.4,374.3 621.2,335.6 656.2,318.8 		"/>
			<polygon class="st2" points="687.9,340.9 684.9,379.1 650.3,395.7 618.7,374 621.7,335.7 656.3,319.2 		"/>
			<polygon class="st2" points="687.1,341.4 684.1,378.7 650.3,394.8 619.5,373.5 622.5,336.2 656.3,320.1 		"/>
			<polygon class="st2" points="687,341.5 684,378.7 650.2,394.6 619.6,373.4 622.6,336.2 656.3,320.2 		"/>
			<polygon class="st2" points="686.4,341.8 683.4,378.3 650.3,394 620.2,373.1 623.2,336.6 656.3,320.9 		"/>
			<polygon class="st2" points="686.1,342.1 683,378.2 650.2,393.6 620.5,372.8 623.6,336.7 656.4,321.3 		"/>
			<polygon class="st2" points="685.5,342.7 682.2,378 650,392.7 621.1,372.2 624.4,336.9 656.6,322.1 		"/>
			<polygon class="st2" points="685.2,342.7 682.1,377.7 650.1,392.5 621.4,372.2 624.5,337.2 656.5,322.4 		"/>
			<polygon class="st2" points="684.9,343 681.6,377.6 650,392.1 621.6,371.9 624.9,337.3 656.6,322.8 		"/>
			<polygon class="st2" points="684.6,343.3 681.2,377.5 649.9,391.7 621.9,371.6 625.3,337.4 656.7,323.2 		"/>
			<polygon class="st2" points="684,343.3 680.9,377 650.2,391.2 622.5,371.6 625.6,337.9 656.4,323.7 		"/>
			<polygon class="st2" points="683.8,343.9 680.3,377 649.8,390.6 622.8,371 626.3,337.8 656.8,324.3 		"/>
			<polygon class="st2" points="683.5,344.2 679.9,376.9 649.7,390.2 623.1,370.7 626.7,338 656.9,324.7 		"/>
			<polygon class="st2" points="681.7,345.9 677.4,376.3 649.1,387.8 624.9,368.9 629.2,338.6 657.5,327.1 		"/>
			<polygon class="st2" points="681.4,346.2 677,376.2 649,387.4 625.2,368.6 629.6,338.7 657.6,327.5 		"/>
			<polygon class="st2" points="681.4,346.2 677,376.2 649,387.4 625.2,368.6 629.6,338.7 657.6,327.5 		"/>
			<polygon class="st2" points="687,332.9 691.4,374.4 657.7,398.9 619.6,382 615.1,340.5 648.9,315.9 		"/>
			<polygon class="st2" points="687.6,332.9 691.7,374.9 657.4,399.4 619,382 614.8,340 649.2,315.4 		"/>
			<polygon class="st2" points="687.6,331.7 692.8,374.3 658.5,400 619,383.2 613.8,340.6 648.1,314.8 		"/>
			<polygon class="st2" points="687.6,331.4 693,374.1 658.7,400.2 619,383.5 613.6,340.7 647.9,314.7 		"/>
			<polygon class="st2" points="687.9,331.4 693.2,374.4 658.6,400.5 618.7,383.5 613.4,340.5 648,314.4 		"/>
			<polygon class="st2" points="687.9,329.6 694.7,373.5 660.1,401.3 618.7,385.3 611.9,341.4 646.5,313.5 		"/>
			<polygon class="st2" points="687.9,329.6 694.7,373.5 660.1,401.3 618.7,385.3 611.9,341.4 646.5,313.5 		"/>
			<polygon class="st2" points="687.9,329.3 695,373.3 660.4,401.5 618.7,385.6 611.6,341.5 646.2,313.4 		"/>
			<polygon class="st2" points="687.9,329 695.2,373.2 660.6,401.6 618.7,385.9 611.4,341.7 646,313.2 		"/>
			<polygon class="st2" points="687.9,328.7 695.5,373 660.9,401.8 618.7,386.2 611.1,341.8 645.7,313.1 		"/>
			<polygon class="st2" points="687.9,328.4 695.8,372.9 661.1,401.9 618.7,386.5 610.8,342 645.5,312.9 		"/>
			<animateTransform attributeName="transform"
                          attributeType="XML"
                          type="rotate"
                          from="0 455.9 457.9"
                          to="-360 455.9 457.9"
                          dur="5s"
                          repeatCount="indefinite"/>
		</g>
		<g class="st1">
			<polygon class="st2" points="654,565.8 652.3,565.6 651.6,564 652.6,562.6 654.3,562.8 655,564.3 		"/>
			<polygon class="st2" points="654,565.8 652.3,565.6 651.6,564 652.6,562.6 654.3,562.8 655,564.3 		"/>
			<polygon class="st2" points="654,566.1 652,565.7 651.3,563.9 652.6,562.3 654.6,562.6 655.3,564.5 		"/>
			<polygon class="st2" points="654,566.4 651.8,565.9 651,563.7 652.6,562 654.8,562.5 655.5,564.6 		"/>
			<polygon class="st2" points="654,566.4 651.8,565.9 651,563.7 652.6,562 654.8,562.5 655.5,564.6 		"/>
			<polygon class="st2" points="655.8,566.4 652.7,567.4 650.2,565.3 650.8,562 653.9,560.9 656.4,563.1 		"/>
			<polygon class="st2" points="657.8,567 653.1,569.4 648.7,566.7 648.8,561.4 653.5,558.9 657.9,561.7 		"/>
			<polygon class="st2" points="660,568.4 652.9,572.1 646.3,567.8 646.6,559.9 653.7,556.3 660.3,560.5 		"/>
			<polygon class="st2" points="663.2,568.4 654.6,574.9 644.6,570.6 643.4,559.9 652,553.4 662,557.7 		"/>
			<polygon class="st2" points="665.3,568.4 655.6,576.7 643.6,572.5 641.3,559.9 651,551.6 663,555.9 		"/>
			<polygon class="st2" points="667.4,568.4 656.7,578.5 642.6,574.3 639.2,559.9 649.9,549.8 664,554.1 		"/>
			<polygon class="st2" points="668.8,568.4 657.4,579.8 641.8,575.5 637.8,559.9 649.2,548.6 664.8,552.8 		"/>
			<polygon class="st2" points="668.8,568.4 657.4,579.8 641.8,575.5 637.8,559.9 649.2,548.6 664.8,552.8 		"/>
			<polygon class="st2" points="670.4,568.4 658.1,581.1 641.1,576.8 636.2,559.9 648.4,547.3 665.5,551.5 		"/>
			<polygon class="st2" points="672.2,568.4 659,582.6 640.2,578.4 634.4,559.9 647.6,545.7 666.4,550 		"/>
			<polygon class="st2" points="673.9,568.4 659.9,584.2 639.3,579.9 632.7,559.9 646.7,544.2 667.3,548.4 		"/>
			<polygon class="st2" points="675.9,568.4 660.9,585.9 638.3,581.6 630.7,559.9 645.7,542.5 668.3,546.7 		"/>
			<polygon class="st2" points="675.9,568.4 660.9,585.9 638.3,581.6 630.7,559.9 645.7,542.5 668.3,546.7 		"/>
			<polygon class="st2" points="677.2,567.5 662.4,586.5 638.5,583.2 629.4,560.8 644.2,541.8 668.1,545.2 		"/>
			<polygon class="st2" points="678.4,566.6 663.8,587.1 638.7,584.7 628.2,561.8 642.8,541.2 667.9,543.6 		"/>
			<polygon class="st2" points="679.6,567 664,588.3 637.7,585.6 627,561.4 642.6,540 668.8,542.8 		"/>
			<polygon class="st2" points="680.2,566.7 664.6,588.7 637.7,586.2 626.4,561.7 642,539.6 668.9,542.1 		"/>
			<polygon class="st2" points="681.7,566.4 665.6,589.8 637.2,587.7 624.9,562 641,538.5 669.4,540.7 		"/>
			<polygon class="st2" points="682.9,565.3 667.1,590.4 637.5,589.2 623.7,563 639.5,538 669.1,539.1 		"/>
			<polygon class="st2" points="682.6,565.8 666.6,590.3 637.3,588.7 624,562.6 640,538 669.3,539.6 		"/>
			<polygon class="st2" points="683.2,565.5 667.1,590.7 637.2,589.4 623.4,562.9 639.5,537.7 669.3,539 		"/>
			<polygon class="st2" points="683.5,565.2 667.5,590.8 637.4,589.8 623.1,563.2 639.1,537.6 669.2,538.6 		"/>
			<polygon class="st2" points="684.3,564.2 668.8,591.1 637.8,591.1 622.2,564.2 637.8,537.3 668.8,537.3 		"/>
			<polygon class="st2" points="684.6,564.2 669,591.3 637.6,591.3 621.9,564.2 637.6,537 669,537 		"/>
			<polygon class="st2" points="684.9,564.2 669.1,591.6 637.5,591.6 621.6,564.2 637.5,536.8 669.1,536.8 		"/>
			<polygon class="st2" points="685.2,564.2 669.3,591.8 637.3,591.8 621.4,564.2 637.3,536.5 669.2,536.5 		"/>
			<polygon class="st2" points="686.1,564.2 669.7,592.6 636.9,592.6 620.5,564.2 636.9,535.7 669.7,535.7 		"/>
			<polygon class="st2" points="686.4,564.2 669.9,592.9 636.7,592.9 620.2,564.2 636.7,535.5 669.8,535.5 		"/>
			<polygon class="st2" points="686.4,562.8 671.1,592.2 637.9,593.6 620.2,565.6 635.5,536.2 668.7,534.8 		"/>
			<polygon class="st2" points="687,562.2 671.9,592.4 638.1,594.4 619.6,566.2 634.7,536 668.4,534 		"/>
			<polygon class="st2" points="687.3,561.9 672.3,592.5 638.3,594.8 619.3,566.5 634.3,535.8 668.3,533.6 		"/>
			<polygon class="st2" points="687.6,561.9 672.4,592.8 638.1,595 619,566.5 634.2,535.6 668.5,533.3 		"/>
			<polygon class="st2" points="687.9,561.6 672.8,592.9 638.2,595.4 618.7,566.7 633.8,535.5 668.4,532.9 		"/>
			<polygon class="st2" points="688.5,561 673.6,593.1 638.4,596.3 618.1,567.3 632.9,535.3 668.2,532.1 		"/>
			<polygon class="st2" points="689.1,560.4 674.5,593.3 638.7,597.1 617.5,567.9 632.1,535 667.9,531.3 		"/>
			<polygon class="st2" points="689.1,560.1 674.7,593.2 638.9,597.2 617.5,568.2 631.9,535.2 667.7,531.1 		"/>
			<polygon class="st2" points="689.1,560.1 674.7,593.2 638.9,597.2 617.5,568.2 631.9,535.2 667.7,531.1 		"/>
			<polygon class="st2" points="689.4,560.1 674.9,593.4 638.8,597.5 617.2,568.2 631.7,534.9 667.8,530.9 		"/>
			<polygon class="st2" points="690,559.5 675.7,593.6 639,598.3 616.6,568.8 630.9,534.7 667.6,530.1 		"/>
			<polygon class="st2" points="690,559.2 675.9,593.5 639.2,598.4 616.6,569.1 630.7,534.9 667.4,529.9 		"/>
			<polygon class="st2" points="691.5,558.9 676.9,594.6 638.7,599.9 615.1,569.4 629.7,533.7 667.8,528.5 		"/>
			<polygon class="st2" points="691.5,558.6 677.2,594.5 639,600 615.1,569.7 629.4,533.9 667.6,528.3 		"/>
			<polygon class="st2" points="691.5,558 677.7,594.2 639.5,600.3 615.1,570.3 628.9,534.2 667.1,528 		"/>
			<polygon class="st2" points="691.5,557.7 678,594 639.8,600.5 615.1,570.6 628.6,534.3 666.8,527.9 		"/>
			<polygon class="st2" points="691.5,557.4 678.2,593.9 640,600.6 615.1,570.9 628.4,534.5 666.6,527.7 		"/>
			<polygon class="st2" points="691.5,556.8 678.7,593.6 640.6,600.9 615.1,571.5 627.9,534.8 666,527.4 		"/>
			<polygon class="st2" points="691.6,555.9 679.6,593.3 641.3,601.5 615,572.4 627,535.1 665.3,526.9 		"/>
			<polygon class="st2" points="691.6,555.4 680.1,593 641.8,601.8 615,573 626.5,535.4 664.8,526.6 		"/>
			<polygon class="st2" points="691.6,555.1 680.4,592.8 642,601.9 615,573.3 626.2,535.5 664.6,526.4 		"/>
			<polygon class="st2" points="691.6,553.9 681.3,592.3 643,602.5 615,574.4 625.3,536.1 663.6,525.9 		"/>
			<polygon class="st2" points="691.6,553.9 681.3,592.3 643,602.5 615,574.4 625.3,536.1 663.6,525.9 		"/>
			<polygon class="st2" points="692.3,553.1 682.4,592.4 643.4,603.5 614.3,575.3 624.2,536 663.2,524.9 		"/>
			<polygon class="st2" points="693.3,553.3 682.7,593.3 642.7,604.2 613.3,575.1 623.9,535 663.8,524.1 		"/>
			<polygon class="st2" points="693.6,552.4 683.6,593.2 643.4,604.9 613,576 622.9,535.2 663.2,523.4 		"/>
			<polygon class="st2" points="693.9,551.8 684.3,593.1 643.7,605.5 612.7,576.6 622.3,535.2 662.8,522.8 		"/>
			<polygon class="st2" points="693.9,551.5 684.6,593 644,605.6 612.7,576.9 622,535.4 662.6,522.7 		"/>
			<polygon class="st2" points="694.2,550.6 685.5,592.8 644.6,606.4 612.4,577.8 621.1,535.6 662,522 		"/>
			<polygon class="st2" points="694.6,549.1 687,592.4 645.7,607.5 612,579.3 619.6,536 660.9,520.8 		"/>
			<polygon class="st2" points="694.6,549.1 687,592.4 645.7,607.5 612,579.3 619.6,536 660.9,520.8 		"/>
			<polygon class="st2" points="694.6,549.1 687,592.4 645.7,607.5 612,579.3 619.6,536 660.9,520.8 		"/>
			<polygon class="st2" points="694.8,548.7 687.4,592.3 645.9,607.8 611.8,579.6 619.2,536 660.6,520.5 		"/>
			<polygon class="st2" points="694.8,548.7 687.4,592.3 645.9,607.8 611.8,579.6 619.2,536 660.6,520.5 		"/>
			<polygon class="st2" points="695.7,547 689.3,592.3 647,609.4 610.9,581.3 617.3,536 659.6,518.9 		"/>
			<polygon class="st2" points="695.7,545.8 690.4,591.7 648,610 610.9,582.5 616.2,536.6 658.6,518.3 		"/>
			<polygon class="st2" points="695.7,545.7 690.5,591.6 648.1,610.1 610.9,582.6 616.1,536.7 658.5,518.2 		"/>
			<polygon class="st2" points="696.9,545 691.7,592.3 648.1,611.5 609.7,583.3 614.9,536 658.5,516.8 		"/>
			<polygon class="st2" points="695.7,542.7 693.1,590.1 650.7,611.6 610.9,585.6 613.5,538.2 655.9,516.7 		"/>
			<polygon class="st2" points="694.6,541.3 693.7,588.5 652.4,611.4 612,587 612.9,539.8 654.2,517 		"/>
			<polygon class="st2" points="694.6,541.3 693.7,588.5 652.4,611.4 612,587 612.9,539.8 654.2,517 		"/>
			<polygon class="st2" points="694.6,541.3 693.7,588.5 652.4,611.4 612,587 612.9,539.8 654.2,517 		"/>
			<polygon class="st2" points="693.6,542.7 692,588.3 651.7,609.8 613,585.6 614.6,540 654.8,518.6 		"/>
			<polygon class="st2" points="693.3,542.7 691.9,588.1 651.9,609.5 613.3,585.6 614.7,540.3 654.7,518.8 		"/>
			<polygon class="st2" points="693,542.7 691.7,587.8 652,609.3 613.6,585.6 614.9,540.5 654.5,519.1 		"/>
			<polygon class="st2" points="692.7,542.7 691.6,587.5 652.2,609 613.9,585.6 615,540.8 654.4,519.3 		"/>
			<polygon class="st2" points="692.1,543.8 690.4,587.6 651.6,608 614.5,584.6 616.2,540.8 655,520.4 		"/>
			<polygon class="st2" points="691.8,544.1 690,587.4 651.5,607.6 614.8,584.3 616.6,540.9 655.1,520.8 		"/>
			<polygon class="st2" points="691.5,544.6 689.3,587.5 651.1,607 615.1,583.7 617.3,540.9 655.5,521.3 		"/>
			<polygon class="st2" points="690.7,545.8 687.9,587.4 650.4,605.8 615.8,582.5 618.7,540.9 656.1,522.6 		"/>
			<polygon class="st2" points="690.7,545.8 687.9,587.4 650.4,605.8 615.8,582.5 618.7,540.9 656.1,522.6 		"/>
			<polygon class="st2" points="690.7,545.8 687.9,587.4 650.4,605.8 615.8,582.5 618.7,540.9 656.1,522.6 		"/>
			<polygon class="st2" points="688.8,545.8 686.9,585.8 651.4,604.1 617.8,582.5 619.7,542.6 655.2,524.3 		"/>
			<polygon class="st2" points="688.8,545.8 686.9,585.8 651.4,604.1 617.8,582.5 619.7,542.6 655.2,524.3 		"/>
			<polygon class="st2" points="688.2,547.3 685.3,586 650.4,602.8 618.4,581 621.2,542.4 656.2,525.5 		"/>
			<polygon class="st2" points="687.9,547.6 684.9,585.9 650.3,602.4 618.7,580.7 621.7,542.5 656.3,525.9 		"/>
			<polygon class="st2" points="687.1,548.1 684.1,585.4 650.3,601.5 619.5,580.2 622.5,542.9 656.3,526.8 		"/>
			<polygon class="st2" points="687,548.2 684,585.4 650.2,601.4 619.6,580.1 622.6,542.9 656.3,527 		"/>
			<polygon class="st2" points="686.4,548.5 683.4,585 650.3,600.7 620.2,579.8 623.2,543.3 656.3,527.7 		"/>
			<polygon class="st2" points="686.1,548.8 683,584.9 650.2,600.3 620.5,579.5 623.6,543.4 656.4,528.1 		"/>
			<polygon class="st2" points="685.5,549.4 682.2,584.7 650,599.5 621.1,578.9 624.4,543.6 656.6,528.9 		"/>
			<polygon class="st2" points="685.2,549.4 682.1,584.5 650.1,599.2 621.4,578.9 624.5,543.9 656.5,529.1 		"/>
			<polygon class="st2" points="684.9,549.7 681.6,584.3 650,598.8 621.6,578.6 624.9,544 656.6,529.5 		"/>
			<polygon class="st2" points="684.6,550 681.2,584.2 649.9,598.4 621.9,578.3 625.3,544.1 656.7,529.9 		"/>
			<polygon class="st2" points="684,550 680.9,583.7 650.2,597.9 622.5,578.3 625.6,544.6 656.4,530.5 		"/>
			<polygon class="st2" points="683.8,550.6 680.3,583.8 649.8,597.3 622.8,577.8 626.3,544.6 656.8,531 		"/>
			<polygon class="st2" points="683.5,550.9 679.9,583.7 649.7,596.9 623.1,577.5 626.7,544.7 656.9,531.4 		"/>
			<polygon class="st2" points="681.7,552.7 677.4,583 649.1,594.5 624.9,575.7 629.2,545.3 657.5,533.9 		"/>
			<polygon class="st2" points="681.4,553 677,582.9 649,594.1 625.2,575.4 629.6,545.5 657.6,534.3 		"/>
			<polygon class="st2" points="681.4,553 677,582.9 649,594.1 625.2,575.4 629.6,545.5 657.6,534.3 		"/>
			<polygon class="st2" points="687,539.6 691.4,581.1 657.7,605.7 619.6,588.8 615.1,547.3 648.9,522.7 		"/>
			<polygon class="st2" points="687.6,539.6 691.7,581.6 657.4,606.2 619,588.8 614.8,546.7 649.2,522.2 		"/>
			<polygon class="st2" points="687.6,538.4 692.8,581 658.5,606.8 619,589.9 613.8,547.3 648.1,521.6 		"/>
			<polygon class="st2" points="687.6,538.1 693,580.9 658.7,606.9 619,590.2 613.6,547.5 647.9,521.4 		"/>
			<polygon class="st2" points="687.9,538.1 693.2,581.1 658.6,607.2 618.7,590.2 613.4,547.2 648,521.2 		"/>
			<polygon class="st2" points="687.9,536.3 694.7,580.2 660.1,608.1 618.7,592 611.9,548.1 646.5,520.3 		"/>
			<polygon class="st2" points="687.9,536.3 694.7,580.2 660.1,608.1 618.7,592 611.9,548.1 646.5,520.3 		"/>
			<polygon class="st2" points="687.9,536 695,580.1 660.4,608.2 618.7,592.3 611.6,548.3 646.2,520.1 		"/>
			<polygon class="st2" points="687.9,535.7 695.2,579.9 660.6,608.4 618.7,592.6 611.4,548.4 646,520 		"/>
			<polygon class="st2" points="687.9,535.4 695.5,579.8 660.9,608.5 618.7,592.9 611.1,548.6 645.7,519.8 		"/>
			<polygon class="st2" points="687.9,535.1 695.8,579.6 661.1,608.7 618.7,593.2 610.8,548.7 645.5,519.7 		"/>
			<animateTransform attributeName="transform"
                          attributeType="XML"
                          type="rotate"
                          from="0 455.9 457.9"
                          to="360 455.9 457.9"
                          dur="10s"
                          repeatCount="indefinite"/>
		</g>
		<g class="st1">
			<polygon class="st2" points="459.1,688.3 457.3,688.1 456.6,686.5 457.6,685.1 459.4,685.3 460.1,686.8 		"/>
			<polygon class="st2" points="459.1,688.3 457.3,688.1 456.6,686.5 457.6,685.1 459.4,685.3 460.1,686.8 		"/>
			<polygon class="st2" points="459.1,688.6 457.1,688.2 456.3,686.4 457.6,684.8 459.6,685.1 460.3,687 		"/>
			<polygon class="st2" points="459.1,688.9 456.8,688.4 456.1,686.2 457.6,684.5 459.9,685 460.6,687.1 		"/>
			<polygon class="st2" points="459.1,688.9 456.8,688.4 456.1,686.2 457.6,684.5 459.9,685 460.6,687.1 		"/>
			<polygon class="st2" points="460.8,688.9 457.7,689.9 455.2,687.8 455.8,684.5 459,683.4 461.5,685.6 		"/>
			<polygon class="st2" points="462.8,689.5 458.2,691.9 453.7,689.2 453.9,683.9 458.5,681.4 463,684.2 		"/>
			<polygon class="st2" points="465,690.9 458,694.6 451.3,690.3 451.7,682.4 458.7,678.8 465.4,683 		"/>
			<polygon class="st2" points="468.3,690.9 459.6,697.4 449.7,693.2 448.4,682.4 457.1,675.9 467,680.2 		"/>
			<polygon class="st2" points="470.4,690.9 460.7,699.2 448.6,695 446.3,682.4 456,674.1 468,678.4 		"/>
			<polygon class="st2" points="472.4,690.9 461.7,701 447.6,696.8 444.2,682.4 455,672.3 469.1,676.6 		"/>
			<polygon class="st2" points="473.9,690.9 462.4,702.3 446.9,698 442.8,682.4 454.3,671.1 469.8,675.4 		"/>
			<polygon class="st2" points="473.9,690.9 462.4,702.3 446.9,698 442.8,682.4 454.3,671.1 469.8,675.4 		"/>
			<polygon class="st2" points="475.4,690.9 463.2,703.6 446.1,699.3 441.3,682.4 453.5,669.8 470.6,674 		"/>
			<polygon class="st2" points="477.2,690.9 464.1,705.1 445.2,700.9 439.5,682.4 452.6,668.2 471.5,672.5 		"/>
			<polygon class="st2" points="479,690.9 465,706.7 444.3,702.4 437.7,682.4 451.7,666.7 472.4,670.9 		"/>
			<polygon class="st2" points="480.9,690.9 465.9,708.4 443.3,704.1 435.7,682.4 450.7,665 473.3,669.2 		"/>
			<polygon class="st2" points="480.9,690.9 465.9,708.4 443.3,704.1 435.7,682.4 450.7,665 473.3,669.2 		"/>
			<polygon class="st2" points="482.2,690 467.4,709 443.5,705.7 434.5,683.3 449.3,664.3 473.2,667.7 		"/>
			<polygon class="st2" points="483.5,689.1 468.8,709.6 443.7,707.2 433.2,684.3 447.9,663.7 473,666.1 		"/>
			<polygon class="st2" points="484.6,689.5 469.1,710.8 442.8,708.1 432,683.9 447.6,662.5 473.9,665.3 		"/>
			<polygon class="st2" points="485.2,689.2 469.6,711.2 442.7,708.7 431.5,684.2 447,662.2 473.9,664.6 		"/>
			<polygon class="st2" points="486.7,688.9 470.6,712.3 442.3,710.2 430,684.5 446,661 474.4,663.2 		"/>
			<polygon class="st2" points="487.9,687.8 472.1,712.9 442.5,711.7 428.7,685.5 444.5,660.5 474.1,661.6 		"/>
			<polygon class="st2" points="487.6,688.3 471.6,712.8 442.3,711.2 429.1,685.1 445.1,660.5 474.3,662.1 		"/>
			<polygon class="st2" points="488.2,688 472.2,713.2 442.3,711.9 428.5,685.4 444.5,660.2 474.4,661.5 		"/>
			<polygon class="st2" points="488.5,687.7 472.6,713.3 442.4,712.3 428.2,685.7 444.1,660.1 474.3,661.1 		"/>
			<polygon class="st2" points="489.4,686.7 473.9,713.6 442.8,713.6 427.3,686.7 442.8,659.8 473.9,659.8 		"/>
			<polygon class="st2" points="489.7,686.7 474,713.8 442.7,713.8 427,686.7 442.7,659.5 474,659.5 		"/>
			<polygon class="st2" points="490,686.7 474.2,714.1 442.5,714.1 426.7,686.7 442.5,659.3 474.1,659.3 		"/>
			<polygon class="st2" points="490.3,686.7 474.3,714.3 442.4,714.4 426.4,686.7 442.3,659 474.3,659 		"/>
			<polygon class="st2" points="491.2,686.7 474.8,715.1 441.9,715.1 425.5,686.7 441.9,658.3 474.7,658.2 		"/>
			<polygon class="st2" points="491.5,686.7 474.9,715.4 441.8,715.4 425.2,686.7 441.8,658 474.9,658 		"/>
			<polygon class="st2" points="491.5,685.3 476.1,714.7 443,716.1 425.2,688.1 440.6,658.7 473.7,657.3 		"/>
			<polygon class="st2" points="492.1,684.7 476.9,714.9 443.2,716.9 424.6,688.7 439.8,658.5 473.5,656.5 		"/>
			<polygon class="st2" points="492.4,684.4 477.3,715 443.3,717.3 424.3,689 439.4,658.4 473.4,656.1 		"/>
			<polygon class="st2" points="492.7,684.4 477.5,715.3 443.2,717.5 424,689 439.2,658.1 473.5,655.8 		"/>
			<polygon class="st2" points="493,684.1 477.9,715.4 443.3,717.9 423.7,689.3 438.8,658 473.4,655.4 		"/>
			<polygon class="st2" points="493.6,683.5 478.7,715.6 443.5,718.8 423.1,689.8 438,657.8 473.2,654.6 		"/>
			<polygon class="st2" points="494.1,682.9 479.5,715.8 443.7,719.6 422.5,690.4 437.2,657.6 473,653.8 		"/>
			<polygon class="st2" points="494.1,682.6 479.8,715.7 444,719.7 422.5,690.7 436.9,657.7 472.7,653.6 		"/>
			<polygon class="st2" points="494.1,682.6 479.8,715.7 444,719.7 422.5,690.7 436.9,657.7 472.7,653.6 		"/>
			<polygon class="st2" points="494.4,682.6 479.9,715.9 443.8,720 422.2,690.7 436.8,657.4 472.9,653.4 		"/>
			<polygon class="st2" points="495,682 480.7,716.1 444,720.8 421.6,691.3 436,657.2 472.7,652.6 		"/>
			<polygon class="st2" points="495,681.7 481,716 444.3,720.9 421.6,691.6 435.7,657.4 472.4,652.4 		"/>
			<polygon class="st2" points="496.5,681.4 482,717.1 443.8,722.4 420.2,691.9 434.7,656.2 472.9,651 		"/>
			<polygon class="st2" points="496.5,681.1 482.2,717 444.1,722.5 420.2,692.2 434.4,656.4 472.6,650.8 		"/>
			<polygon class="st2" points="496.5,680.5 482.8,716.7 444.6,722.8 420.2,692.8 433.9,656.7 472.1,650.5 		"/>
			<polygon class="st2" points="496.5,680.2 483,716.5 444.8,723 420.2,693.1 433.7,656.8 471.9,650.4 		"/>
			<polygon class="st2" points="496.5,679.9 483.3,716.4 445.1,723.1 420.2,693.4 433.4,657 471.6,650.2 		"/>
			<polygon class="st2" points="496.5,679.3 483.8,716.1 445.6,723.4 420.2,694 432.9,657.3 471.1,649.9 		"/>
			<polygon class="st2" points="496.7,678.5 484.6,715.8 446.3,724 420,694.9 432,657.6 470.4,649.4 		"/>
			<polygon class="st2" points="496.7,677.9 485.1,715.5 446.8,724.3 420,695.5 431.5,657.9 469.9,649.1 		"/>
			<polygon class="st2" points="496.7,677.6 485.4,715.3 447.1,724.4 420,695.8 431.3,658 469.6,648.9 		"/>
			<polygon class="st2" points="496.7,676.4 486.4,714.8 448,725 420,696.9 430.3,658.6 468.6,648.4 		"/>
			<polygon class="st2" points="496.7,676.4 486.4,714.8 448,725 420,696.9 430.3,658.6 468.6,648.4 		"/>
			<polygon class="st2" points="497.3,675.6 487.4,714.9 448.5,726 419.4,697.8 429.2,658.5 468.2,647.4 		"/>
			<polygon class="st2" points="498.3,675.8 487.8,715.8 447.8,726.7 418.4,697.6 428.9,657.5 468.9,646.6 		"/>
			<polygon class="st2" points="498.6,674.9 488.7,715.7 448.4,727.4 418.1,698.5 428,657.7 468.3,645.9 		"/>
			<polygon class="st2" points="498.9,674.3 489.3,715.6 448.8,728 417.8,699.1 427.3,657.7 467.9,645.4 		"/>
			<polygon class="st2" points="498.9,674 489.6,715.5 449,728.2 417.8,699.4 427.1,657.9 467.6,645.2 		"/>
			<polygon class="st2" points="499.2,673.1 490.5,715.3 449.7,728.9 417.5,700.3 426.1,658.1 467,644.5 		"/>
			<polygon class="st2" points="499.6,671.6 492.1,714.9 450.8,730 417,701.8 424.6,658.5 465.9,643.4 		"/>
			<polygon class="st2" points="499.6,671.6 492.1,714.9 450.8,730 417,701.8 424.6,658.5 465.9,643.4 		"/>
			<polygon class="st2" points="499.6,671.6 492.1,714.9 450.8,730 417,701.8 424.6,658.5 465.9,643.4 		"/>
			<polygon class="st2" points="499.8,671.2 492.5,714.9 451,730.3 416.9,702.1 424.2,658.5 465.7,643 		"/>
			<polygon class="st2" points="499.8,671.2 492.5,714.9 451,730.3 416.9,702.1 424.2,658.5 465.7,643 		"/>
			<polygon class="st2" points="500.7,669.5 494.4,714.8 452,732 416,703.8 422.3,658.6 464.7,641.4 		"/>
			<polygon class="st2" points="500.7,668.3 495.4,714.2 453,732.5 416,705 421.3,659.1 463.6,640.8 		"/>
			<polygon class="st2" points="500.7,668.2 495.5,714.1 453.1,732.6 416,705.2 421.2,659.2 463.5,640.7 		"/>
			<polygon class="st2" points="501.9,667.5 496.7,714.8 453.1,734 414.8,705.8 419.9,658.5 463.5,639.4 		"/>
			<polygon class="st2" points="500.7,665.2 498.1,712.7 455.7,734.1 416,708.1 418.6,660.7 460.9,639.3 		"/>
			<polygon class="st2" points="499.6,663.8 498.8,711 457.5,733.9 417,709.5 417.9,662.3 459.2,639.5 		"/>
			<polygon class="st2" points="499.6,663.8 498.8,711 457.5,733.9 417,709.5 417.9,662.3 459.2,639.5 		"/>
			<polygon class="st2" points="499.6,663.8 498.8,711 457.5,733.9 417,709.5 417.9,662.3 459.2,639.5 		"/>
			<polygon class="st2" points="498.6,665.2 497.1,710.8 456.8,732.3 418.1,708.1 419.6,662.5 459.9,641.1 		"/>
			<polygon class="st2" points="498.3,665.2 496.9,710.6 456.9,732 418.4,708.1 419.8,662.8 459.7,641.3 		"/>
			<polygon class="st2" points="498,665.2 496.8,710.3 457.1,731.8 418.7,708.1 419.9,663.1 459.6,641.6 		"/>
			<polygon class="st2" points="497.7,665.2 496.6,710.1 457.2,731.5 419,708.1 420.1,663.3 459.4,641.9 		"/>
			<polygon class="st2" points="497.1,666.3 495.4,710.1 456.6,730.5 419.6,707.1 421.3,663.3 460,642.9 		"/>
			<polygon class="st2" points="496.8,666.6 495,709.9 456.5,730.1 419.9,706.8 421.7,663.4 460.2,643.3 		"/>
			<polygon class="st2" points="496.5,667.2 494.3,710 456.2,729.5 420.2,706.2 422.3,663.4 460.5,643.8 		"/>
			<polygon class="st2" points="495.8,668.3 492.9,709.9 455.5,728.3 420.9,705 423.7,663.4 461.2,645.1 		"/>
			<polygon class="st2" points="495.8,668.3 492.9,709.9 455.5,728.3 420.9,705 423.7,663.4 461.2,645.1 		"/>
			<polygon class="st2" points="495.8,668.3 492.9,709.9 455.5,728.3 420.9,705 423.7,663.4 461.2,645.1 		"/>
			<polygon class="st2" points="493.8,668.3 492,708.3 456.5,726.6 422.8,705 424.7,665.1 460.2,646.8 		"/>
			<polygon class="st2" points="493.8,668.3 492,708.3 456.5,726.6 422.8,705 424.7,665.1 460.2,646.8 		"/>
			<polygon class="st2" points="493.3,669.8 490.4,708.5 455.5,725.3 423.4,703.5 426.3,664.9 461.2,648 		"/>
			<polygon class="st2" points="493,670.1 490,708.4 455.4,724.9 423.7,703.2 426.7,665 461.3,648.4 		"/>
			<polygon class="st2" points="492.2,670.6 489.2,708 455.3,724 424.5,702.7 427.5,665.4 461.3,649.3 		"/>
			<polygon class="st2" points="492.1,670.7 489,707.9 455.3,723.9 424.6,702.6 427.7,665.5 461.4,649.5 		"/>
			<polygon class="st2" points="491.5,671 488.5,707.5 455.3,723.2 425.2,702.3 428.2,665.8 461.3,650.2 		"/>
			<polygon class="st2" points="491.2,671.3 488.1,707.4 455.2,722.8 425.5,702 428.6,665.9 461.5,650.6 		"/>
			<polygon class="st2" points="490.6,671.9 487.2,707.2 455,722 426.1,701.4 429.4,666.1 461.7,651.4 		"/>
			<polygon class="st2" points="490.3,671.9 487.1,707 455.2,721.7 426.4,701.4 429.6,666.4 461.5,651.6 		"/>
			<polygon class="st2" points="490,672.2 486.7,706.9 455,721.3 426.7,701.1 430,666.5 461.6,652 		"/>
			<polygon class="st2" points="489.7,672.5 486.3,706.7 454.9,720.9 427,700.9 430.4,666.6 461.7,652.4 		"/>
			<polygon class="st2" points="489.1,672.5 486,706.2 455.2,720.4 427.6,700.9 430.7,667.1 461.4,653 		"/>
			<polygon class="st2" points="488.8,673.1 485.3,706.3 454.9,719.8 427.9,700.3 431.4,667.1 461.8,653.5 		"/>
			<polygon class="st2" points="488.5,673.4 484.9,706.2 454.8,719.4 428.2,700 431.8,667.2 461.9,653.9 		"/>
			<polygon class="st2" points="486.7,675.2 482.5,705.5 454.1,717 430,698.2 434.2,667.9 462.6,656.4 		"/>
			<polygon class="st2" points="486.4,675.5 482.1,705.4 454,716.6 430.3,697.9 434.6,668 462.7,656.8 		"/>
			<polygon class="st2" points="486.4,675.5 482.1,705.4 454,716.6 430.3,697.9 434.6,668 462.7,656.8 		"/>
			<polygon class="st2" points="492.1,662.1 496.5,703.6 462.8,728.2 424.6,711.3 420.2,669.8 453.9,645.2 		"/>
			<polygon class="st2" points="492.7,662.1 496.8,704.1 462.5,728.7 424,711.3 419.9,669.2 454.2,644.7 		"/>
			<polygon class="st2" points="492.7,660.9 497.8,703.5 463.5,729.3 424,712.4 418.9,669.8 453.2,644.1 		"/>
			<polygon class="st2" points="492.7,660.6 498.1,703.4 463.8,729.4 424,712.8 418.6,670 452.9,643.9 		"/>
			<polygon class="st2" points="493,660.6 498.2,703.6 463.6,729.7 423.7,712.8 418.5,669.7 453.1,643.7 		"/>
			<polygon class="st2" points="493,658.8 499.8,702.7 465.1,730.6 423.7,714.5 416.9,670.6 451.5,642.8 		"/>
			<polygon class="st2" points="493,658.8 499.8,702.7 465.1,730.6 423.7,714.5 416.9,670.6 451.5,642.8 		"/>
			<polygon class="st2" points="493,658.5 500,702.6 465.4,730.7 423.7,714.8 416.7,670.8 451.3,642.6 		"/>
			<polygon class="st2" points="493,658.2 500.3,702.4 465.7,730.9 423.7,715.1 416.4,670.9 451,642.5 		"/>
			<polygon class="st2" points="493,657.9 500.5,702.3 465.9,731 423.7,715.4 416.1,671.1 450.8,642.3 		"/>
			<polygon class="st2" points="493,657.6 500.8,702.1 466.2,731.2 423.7,715.7 415.9,671.2 450.5,642.2 		"/>
			<animateTransform attributeName="transform"
                          attributeType="XML"
                          type="rotate"
                          from="0 455.9 457.9"
                          to="-360 455.9 457.9"
                          dur="5s"
                          repeatCount="indefinite"/>
		</g>
		<g class="st1">
			<polygon class="st2" points="256.3,565.8 254.6,565.6 253.9,564 254.9,562.6 256.6,562.8 257.3,564.3 		"/>
			<polygon class="st2" points="256.3,565.8 254.6,565.6 253.9,564 254.9,562.6 256.6,562.8 257.3,564.3 		"/>
			<polygon class="st2" points="256.3,566.1 254.3,565.7 253.6,563.9 254.9,562.3 256.9,562.6 257.6,564.5 		"/>
			<polygon class="st2" points="256.3,566.4 254.1,565.9 253.4,563.7 254.9,562 257.1,562.5 257.9,564.6 		"/>
			<polygon class="st2" points="256.3,566.4 254.1,565.9 253.4,563.7 254.9,562 257.1,562.5 257.9,564.6 		"/>
			<polygon class="st2" points="258.1,566.4 255,567.4 252.5,565.3 253.1,562 256.2,560.9 258.8,563.1 		"/>
			<polygon class="st2" points="260.1,567 255.4,569.4 251,566.7 251.1,561.4 255.8,558.9 260.2,561.7 		"/>
			<polygon class="st2" points="262.3,568.4 255.3,572.1 248.6,567.8 248.9,559.9 256,556.3 262.6,560.5 		"/>
			<polygon class="st2" points="265.5,568.4 256.9,574.9 246.9,570.6 245.7,559.9 254.3,553.4 264.3,557.7 		"/>
			<polygon class="st2" points="267.6,568.4 257.9,576.7 245.9,572.5 243.6,559.9 253.3,551.6 265.3,555.9 		"/>
			<polygon class="st2" points="269.7,568.4 259,578.5 244.9,574.3 241.5,559.9 252.3,549.8 266.4,554.1 		"/>
			<polygon class="st2" points="271.2,568.4 259.7,579.8 244.1,575.5 240.1,559.9 251.5,548.6 267.1,552.8 		"/>
			<polygon class="st2" points="271.2,568.4 259.7,579.8 244.1,575.5 240.1,559.9 251.5,548.6 267.1,552.8 		"/>
			<polygon class="st2" points="272.7,568.4 260.5,581.1 243.4,576.8 238.5,559.9 250.8,547.3 267.8,551.5 		"/>
			<polygon class="st2" points="274.5,568.4 261.3,582.6 242.5,578.4 236.8,559.9 249.9,545.7 268.7,550 		"/>
			<polygon class="st2" points="276.3,568.4 262.2,584.2 241.6,579.9 235,559.9 249,544.2 269.6,548.4 		"/>
			<polygon class="st2" points="278.2,568.4 263.2,585.9 240.6,581.6 233,559.9 248,542.5 270.6,546.7 		"/>
			<polygon class="st2" points="278.2,568.4 263.2,585.9 240.6,581.6 233,559.9 248,542.5 270.6,546.7 		"/>
			<polygon class="st2" points="279.5,567.5 264.7,586.5 240.8,583.2 231.7,560.8 246.6,541.8 270.4,545.2 		"/>
			<polygon class="st2" points="280.7,566.6 266.1,587.1 241,584.7 230.5,561.8 245.1,541.2 270.3,543.6 		"/>
			<polygon class="st2" points="281.9,567 266.4,588.3 240.1,585.6 229.3,561.4 244.9,540 271.2,542.8 		"/>
			<polygon class="st2" points="282.5,566.7 266.9,588.7 240,586.2 228.7,561.7 244.3,539.6 271.2,542.1 		"/>
			<polygon class="st2" points="284,566.4 267.9,589.8 239.5,587.7 227.2,562 243.3,538.5 271.7,540.7 		"/>
			<polygon class="st2" points="285.2,565.3 269.4,590.4 239.8,589.2 226,563 241.8,538 271.4,539.1 		"/>
			<polygon class="st2" points="284.9,565.8 268.9,590.3 239.6,588.7 226.3,562.6 242.4,538 271.6,539.6 		"/>
			<polygon class="st2" points="285.5,565.5 269.4,590.7 239.6,589.4 225.7,562.9 241.8,537.7 271.7,539 		"/>
			<polygon class="st2" points="285.8,565.2 269.8,590.8 239.7,589.8 225.5,563.2 241.4,537.6 271.5,538.6 		"/>
			<polygon class="st2" points="286.7,564.2 271.1,591.1 240.1,591.1 224.6,564.2 240.1,537.3 271.1,537.3 		"/>
			<polygon class="st2" points="287,564.2 271.3,591.3 239.9,591.3 224.3,564.2 239.9,537 271.3,537 		"/>
			<polygon class="st2" points="287.3,564.2 271.5,591.6 239.8,591.6 224,564.2 239.8,536.8 271.4,536.8 		"/>
			<polygon class="st2" points="287.6,564.2 271.6,591.8 239.7,591.8 223.7,564.2 239.6,536.5 271.6,536.5 		"/>
			<polygon class="st2" points="288.4,564.2 272,592.6 239.2,592.6 222.8,564.2 239.2,535.7 272,535.7 		"/>
			<polygon class="st2" points="288.7,564.2 272.2,592.9 239.1,592.9 222.5,564.2 239,535.5 272.2,535.5 		"/>
			<polygon class="st2" points="288.7,562.8 273.4,592.2 240.2,593.6 222.5,565.6 237.8,536.2 271,534.8 		"/>
			<polygon class="st2" points="289.3,562.2 274.2,592.4 240.5,594.4 221.9,566.2 237,536 270.8,534 		"/>
			<polygon class="st2" points="289.6,561.9 274.6,592.5 240.6,594.8 221.6,566.5 236.6,535.8 270.6,533.6 		"/>
			<polygon class="st2" points="289.9,561.9 274.7,592.8 240.4,595 221.3,566.5 236.5,535.6 270.8,533.3 		"/>
			<polygon class="st2" points="290.2,561.6 275.1,592.9 240.5,595.4 221,566.7 236.1,535.5 270.7,532.9 		"/>
			<polygon class="st2" points="290.8,561 276,593.1 240.7,596.3 220.4,567.3 235.3,535.3 270.5,532.1 		"/>
			<polygon class="st2" points="291.4,560.4 276.8,593.3 241,597.1 219.8,567.9 234.4,535 270.3,531.3 		"/>
			<polygon class="st2" points="291.4,560.1 277,593.2 241.2,597.2 219.8,568.2 234.2,535.2 270,531.1 		"/>
			<polygon class="st2" points="291.4,560.1 277,593.2 241.2,597.2 219.8,568.2 234.2,535.2 270,531.1 		"/>
			<polygon class="st2" points="291.7,560.1 277.2,593.4 241.1,597.5 219.5,568.2 234,534.9 270.1,530.9 		"/>
			<polygon class="st2" points="292.3,559.5 278,593.6 241.3,598.3 218.9,568.8 233.2,534.7 269.9,530.1 		"/>
			<polygon class="st2" points="292.3,559.2 278.3,593.5 241.6,598.4 218.9,569.1 233,534.9 269.7,529.9 		"/>
			<polygon class="st2" points="293.8,558.9 279.3,594.6 241.1,599.9 217.4,569.4 232,533.7 270.2,528.5 		"/>
			<polygon class="st2" points="293.8,558.6 279.5,594.5 241.3,600 217.4,569.7 231.7,533.9 269.9,528.3 		"/>
			<polygon class="st2" points="293.8,558 280,594.2 241.8,600.3 217.4,570.3 231.2,534.2 269.4,528 		"/>
			<polygon class="st2" points="293.8,557.7 280.3,594 242.1,600.5 217.4,570.6 230.9,534.3 269.1,527.9 		"/>
			<polygon class="st2" points="293.8,557.4 280.5,593.9 242.4,600.6 217.4,570.9 230.7,534.5 268.9,527.7 		"/>
			<polygon class="st2" points="293.8,556.8 281.1,593.6 242.9,600.9 217.4,571.5 230.2,534.8 268.4,527.4 		"/>
			<polygon class="st2" points="293.9,555.9 281.9,593.3 243.6,601.5 217.3,572.4 229.3,535.1 267.7,526.9 		"/>
			<polygon class="st2" points="293.9,555.4 282.4,593 244.1,601.8 217.3,573 228.8,535.4 267.1,526.6 		"/>
			<polygon class="st2" points="293.9,555.1 282.7,592.8 244.3,601.9 217.3,573.3 228.5,535.5 266.9,526.4 		"/>
			<polygon class="st2" points="293.9,553.9 283.6,592.3 245.3,602.5 217.3,574.4 227.6,536.1 265.9,525.9 		"/>
			<polygon class="st2" points="293.9,553.9 283.6,592.3 245.3,602.5 217.3,574.4 227.6,536.1 265.9,525.9 		"/>
			<polygon class="st2" points="294.6,553.1 284.7,592.4 245.7,603.5 216.6,575.3 226.5,536 265.5,524.9 		"/>
			<polygon class="st2" points="295.6,553.3 285,593.3 245.1,604.2 215.6,575.1 226.2,535 266.2,524.1 		"/>
			<polygon class="st2" points="295.9,552.4 286,593.2 245.7,604.9 215.3,576 225.3,535.2 265.5,523.4 		"/>
			<polygon class="st2" points="296.2,551.8 286.6,593.1 246.1,605.5 215,576.6 224.6,535.2 265.2,522.8 		"/>
			<polygon class="st2" points="296.2,551.5 286.9,593 246.3,605.6 215,576.9 224.3,535.4 264.9,522.7 		"/>
			<polygon class="st2" points="296.5,550.6 287.8,592.8 246.9,606.4 214.7,577.8 223.4,535.6 264.3,522 		"/>
			<polygon class="st2" points="296.9,549.1 289.4,592.4 248,607.5 214.3,579.3 221.9,536 263.2,520.8 		"/>
			<polygon class="st2" points="296.9,549.1 289.4,592.4 248,607.5 214.3,579.3 221.9,536 263.2,520.8 		"/>
			<polygon class="st2" points="296.9,549.1 289.4,592.4 248,607.5 214.3,579.3 221.9,536 263.2,520.8 		"/>
			<polygon class="st2" points="297.1,548.7 289.7,592.3 248.3,607.8 214.2,579.6 221.5,536 263,520.5 		"/>
			<polygon class="st2" points="297.1,548.7 289.7,592.3 248.3,607.8 214.2,579.6 221.5,536 263,520.5 		"/>
			<polygon class="st2" points="298,547 291.6,592.3 249.3,609.4 213.2,581.3 219.6,536 261.9,518.9 		"/>
			<polygon class="st2" points="298,545.8 292.7,591.7 250.3,610 213.2,582.5 218.5,536.6 260.9,518.3 		"/>
			<polygon class="st2" points="298,545.7 292.8,591.6 250.4,610.1 213.2,582.6 218.4,536.7 260.8,518.2 		"/>
			<polygon class="st2" points="299.2,545 294,592.3 250.4,611.5 212,583.3 217.2,536 260.8,516.8 		"/>
			<polygon class="st2" points="298,542.7 295.4,590.1 253,611.6 213.2,585.6 215.8,538.2 258.2,516.7 		"/>
			<polygon class="st2" points="296.9,541.3 296,588.5 254.7,611.4 214.3,587 215.2,539.8 256.5,517 		"/>
			<polygon class="st2" points="296.9,541.3 296,588.5 254.7,611.4 214.3,587 215.2,539.8 256.5,517 		"/>
			<polygon class="st2" points="296.9,541.3 296,588.5 254.7,611.4 214.3,587 215.2,539.8 256.5,517 		"/>
			<polygon class="st2" points="295.9,542.7 294.3,588.3 254.1,609.8 215.3,585.6 216.9,540 257.2,518.6 		"/>
			<polygon class="st2" points="295.6,542.7 294.2,588.1 254.2,609.5 215.6,585.6 217,540.3 257,518.8 		"/>
			<polygon class="st2" points="295.3,542.7 294,587.8 254.4,609.3 215.9,585.6 217.2,540.5 256.9,519.1 		"/>
			<polygon class="st2" points="295,542.7 293.9,587.5 254.5,609 216.2,585.6 217.3,540.8 256.7,519.3 		"/>
			<polygon class="st2" points="294.4,543.8 292.7,587.6 253.9,608 216.8,584.6 218.5,540.8 257.3,520.4 		"/>
			<polygon class="st2" points="294.1,544.1 292.3,587.4 253.8,607.6 217.1,584.3 218.9,540.9 257.4,520.8 		"/>
			<polygon class="st2" points="293.8,544.6 291.6,587.5 253.4,607 217.4,583.7 219.6,540.9 257.8,521.3 		"/>
			<polygon class="st2" points="293.1,545.8 290.2,587.4 252.8,605.8 218.2,582.5 221,540.9 258.5,522.6 		"/>
			<polygon class="st2" points="293.1,545.8 290.2,587.4 252.8,605.8 218.2,582.5 221,540.9 258.5,522.6 		"/>
			<polygon class="st2" points="293.1,545.8 290.2,587.4 252.8,605.8 218.2,582.5 221,540.9 258.5,522.6 		"/>
			<polygon class="st2" points="291.1,545.8 289.2,585.8 253.7,604.1 220.1,582.5 222,542.6 257.5,524.3 		"/>
			<polygon class="st2" points="291.1,545.8 289.2,585.8 253.7,604.1 220.1,582.5 222,542.6 257.5,524.3 		"/>
			<polygon class="st2" points="290.5,547.3 287.7,586 252.7,602.8 220.7,581 223.6,542.4 258.5,525.5 		"/>
			<polygon class="st2" points="290.2,547.6 287.3,585.9 252.6,602.4 221,580.7 224,542.5 258.6,525.9 		"/>
			<polygon class="st2" points="289.5,548.1 286.4,585.4 252.6,601.5 221.8,580.2 224.8,542.9 258.6,526.8 		"/>
			<polygon class="st2" points="289.3,548.2 286.3,585.4 252.6,601.4 221.9,580.1 224.9,542.9 258.7,527 		"/>
			<polygon class="st2" points="288.7,548.5 285.7,585 252.6,600.7 222.5,579.8 225.5,543.3 258.6,527.7 		"/>
			<polygon class="st2" points="288.4,548.8 285.3,584.9 252.5,600.3 222.8,579.5 225.9,543.4 258.7,528.1 		"/>
			<polygon class="st2" points="287.8,549.4 284.5,584.7 252.3,599.5 223.4,578.9 226.7,543.6 258.9,528.9 		"/>
			<polygon class="st2" points="287.6,549.4 284.4,584.5 252.4,599.2 223.7,578.9 226.9,543.9 258.8,529.1 		"/>
			<polygon class="st2" points="287.3,549.7 284,584.3 252.3,598.8 224,578.6 227.3,544 258.9,529.5 		"/>
			<polygon class="st2" points="287,550 283.6,584.2 252.2,598.4 224.3,578.3 227.7,544.1 259,529.9 		"/>
			<polygon class="st2" points="286.4,550 283.3,583.7 252.5,597.9 224.9,578.3 228,544.6 258.7,530.5 		"/>
			<polygon class="st2" points="286.1,550.6 282.6,583.8 252.1,597.3 225.2,577.8 228.6,544.6 259.1,531 		"/>
			<polygon class="st2" points="285.8,550.9 282.2,583.7 252,596.9 225.5,577.5 229,544.7 259.2,531.4 		"/>
			<polygon class="st2" points="284,552.7 279.8,583 251.4,594.5 227.2,575.7 231.5,545.3 259.8,533.9 		"/>
			<polygon class="st2" points="283.7,553 279.3,582.9 251.3,594.1 227.5,575.4 231.9,545.5 260,534.3 		"/>
			<polygon class="st2" points="283.7,553 279.3,582.9 251.3,594.1 227.5,575.4 231.9,545.5 260,534.3 		"/>
			<polygon class="st2" points="289.3,539.6 293.8,581.1 260,605.7 221.9,588.8 217.5,547.3 251.2,522.7 		"/>
			<polygon class="st2" points="289.9,539.6 294.1,581.6 259.7,606.2 221.3,588.8 217.2,546.7 251.5,522.2 		"/>
			<polygon class="st2" points="289.9,538.4 295.1,581 260.8,606.8 221.3,589.9 216.1,547.3 250.5,521.6 		"/>
			<polygon class="st2" points="289.9,538.1 295.3,580.9 261,606.9 221.3,590.2 215.9,547.5 250.2,521.4 		"/>
			<polygon class="st2" points="290.2,538.1 295.5,581.1 260.9,607.2 221,590.2 215.7,547.2 250.3,521.2 		"/>
			<polygon class="st2" points="290.2,536.3 297,580.2 262.4,608.1 221,592 214.2,548.1 248.8,520.3 		"/>
			<polygon class="st2" points="290.2,536.3 297,580.2 262.4,608.1 221,592 214.2,548.1 248.8,520.3 		"/>
			<polygon class="st2" points="290.2,536 297.3,580.1 262.7,608.2 221,592.3 213.9,548.3 248.5,520.1 		"/>
			<polygon class="st2" points="290.2,535.7 297.6,579.9 262.9,608.4 221,592.6 213.7,548.4 248.3,520 		"/>
			<polygon class="st2" points="290.2,535.4 297.8,579.8 263.2,608.5 221,592.9 213.4,548.6 248,519.8 		"/>
			<polygon class="st2" points="290.2,535.1 298.1,579.6 263.4,608.7 221,593.2 213.2,548.7 247.8,519.7 		"/>
			<animateTransform attributeName="transform"
                          attributeType="XML"
                          type="rotate"
                          from="0 455.9 457.9"
                          to="360 455.9 457.9"
                          dur="10s"
                          repeatCount="indefinite"/>
		</g>
		<g class="st3">
			<g>
				
					<ellipse id="GreenPath_13_" transform="matrix(0.8834 -0.4685 0.4685 0.8834 -161.4238 266.9695)" class="st4" cx="455.9" cy="457.9" rx="317.8" ry="104.5"/>
				<path id="GreenPath_12_" class="st4" d="M351.4,457.9c0,175.5,46.7,317.9,104.4,318c57.7,0.1,104.5-142,104.6-317.6
					c0-0.2,0-0.3,0-0.5c0-175.5-46.8-317.8-104.5-317.8S351.4,282.4,351.4,457.9"/>
				
					<ellipse id="yellowPath_6_" transform="matrix(0.4685 -0.8834 0.8834 0.4685 -162.2585 646.133)" class="st4" cx="455.9" cy="457.9" rx="104.5" ry="317.8"/>
					<animateTransform attributeName="transform"
	                          attributeType="XML"
	                          type="rotate"
	                          from="0 455.9 457.9"
	                          to="-360 455.9 457.9"
	                          dur="20s"
	                          repeatCount="indefinite"/>
			</g>
		</g>
		
     </g>
</g>
</svg>
