<?xml version="1.0" encoding="utf-8"?>
<!-- Generator: Adobe Illustrator 22.0.1, SVG Export Plug-In . SVG Version: 6.00 Build 0)  -->
<svg version="1.1" id="Layer_1" xmlns="http://www.w3.org/2000/svg" xmlns:xlink="http://www.w3.org/1999/xlink" x="0px" y="0px"
	 viewBox="0 0 532 525" style="enable-background:new 0 0 532 525;" xml:space="preserve">
<style type="text/css">
	.st0{fill:#FFFFFF;}
	.st1{fill:url(#SVGID_1_);}
	.st2{fill:#736357;}
	.st3{fill:url(#SVGID_2_);}
	.st4{fill:#1A1A1A;}
	.st5{fill:url(#SVGID_3_);}
	.st6{opacity:0.5;fill:url(#SVGID_4_);}
	.st7{opacity:0.6;fill:url(#SVGID_5_);}
	.st8{opacity:0.5;fill:url(#SVGID_6_);}
	.st9{opacity:0.6;fill:url(#SVGID_7_);}
	.st10{fill:url(#SVGID_8_);}
</style>
<g>
	
		<image style="overflow:visible;opacity:0.57;" width="169" height="87" xlink:href="A192B5D8.png"  transform="matrix(1 0 0 1 183 421.6667)">
	</image>
	<g>
		<polygon class="st0" points="311,496.7 217.7,496.7 189.5,427.8 339.2,427.8 		"/>
	</g>
</g>
<g>
	
		<image style="overflow:visible;opacity:0.75;" width="563" height="551" xlink:href="A192B5D9.png"  transform="matrix(1 0 0 1 -16 -12.3333)">
	</image>
	<g>
		<linearGradient id="SVGID_1_" gradientUnits="userSpaceOnUse" x1="38.5487" y1="132.0641" x2="492.7013" y2="394.2692">
			<stop  offset="0.2536" style="stop-color:#1A1A1A"/>
			<stop  offset="1" style="stop-color:#1A1A1A"/>
		</linearGradient>
		<path class="st1" d="M271,520.7h-10.8C118,520.7,2.7,405.4,2.7,263.2v0C2.7,121,118,5.7,260.2,5.7H271
			c142.2,0,257.5,115.3,257.5,257.5v0C528.5,405.4,413.2,520.7,271,520.7z"/>
	</g>
</g>
<g>
	
		<image style="overflow:visible;opacity:0.74;" width="332" height="377" xlink:href="A192B5DF.png"  transform="matrix(1 0 0 1 105 77.6667)">
	</image>
	<g>
		<g>
			<polygon class="st2" points="304.7,424.2 228.9,424.2 205.9,368.2 327.7,368.2 			"/>
			<polygon class="st2" points="324,397 209.6,397 174.9,312.6 358.6,312.6 			"/>
			<path class="st2" d="M406.1,240.1c0,25.7-7,49.9-19.3,70.5h-4.3c-2.7,7.6-6.1,14.8-10.1,21.6h-8.9c-2.2,6.3-5,12.4-8.4,18H180.3
				c-3.4-5.7-6.2-11.7-8.4-18h-8.9c-4-6.8-7.4-14-10.1-21.6h-4.3c-12.2-20.6-19.3-44.7-19.3-70.5c0-76.4,61.9-138.4,138.4-138.4
				S406.1,163.7,406.1,240.1z"/>
		</g>
	</g>
</g>
<g>
	
		<image style="overflow:visible;opacity:0.57;" width="169" height="88" xlink:href="A192B5DA.png"  transform="matrix(1 0 0 1 183 401.6667)">
	</image>
	<g>
		<linearGradient id="SVGID_2_" gradientUnits="userSpaceOnUse" x1="189.4998" y1="442.3175" x2="339.2087" y2="442.3175">
			<stop  offset="0.1054" style="stop-color:#FBB03B"/>
			<stop  offset="1" style="stop-color:#F15A24"/>
		</linearGradient>
		<path class="st3" d="M291.8,476.7h-55c-11.6,0-22-7-26.4-17.7l-21-51.1h149.7l-21,51.1C313.8,469.7,303.4,476.7,291.8,476.7z"/>
	</g>
</g>
<g>
	<polygon class="st4" points="377.3,324 334.7,427.8 304.2,427.8 304.2,467.7 286.5,467.7 286.5,427.8 242.2,427.8 242.2,467.7 
		224.5,467.7 224.5,427.8 194.1,427.8 151.4,324 	"/>
</g>
<g>
	
		<image style="overflow:visible;opacity:0.27;" width="365" height="330" xlink:href="A192B5DB.png"  transform="matrix(1 0 0 1 86 55.6667)">
	</image>
	<g>
		<linearGradient id="SVGID_3_" gradientUnits="userSpaceOnUse" x1="422.8214" y1="299.7178" x2="109.5009" y2="166.7212">
			<stop  offset="0.1054" style="stop-color:#FBB03B"/>
			<stop  offset="1" style="stop-color:#F15A24"/>
		</linearGradient>
		<path class="st5" d="M435.6,234.9c0,14.2-1.7,28.1-5.1,41.3c-1.5,6.2-3.4,12.2-5.6,18.1c-0.2,0.5-0.4,1-0.6,1.5
			c-0.7,1.7-1.3,3.4-2,5.1c-3,7.2-6.5,14.1-10.5,20.7h-5.3c-1.8,5.1-3.9,10.1-6.2,15c-1.9,4-4,7.8-6.2,11.6h-11
			c-2.7,7.8-6.2,15.2-10.3,22.1H158c0,0,0-0.1-0.1-0.1c-0.9-1.5-1.8-3.1-2.6-4.6c-2.4-4.4-4.5-9-6.3-13.7c-0.5-1.2-0.9-2.5-1.4-3.7
			h-11c-2.1-3.5-4-7-5.7-10.7c-0.4-0.9-0.8-1.7-1.2-2.6c-0.7-1.4-1.3-2.9-1.9-4.3c-1.3-3-2.4-6-3.5-9H119c-4.9-8.3-9.1-17-12.6-26.1
			c-3.3-8.7-6-17.8-7.8-27.2c-0.5-2.4-0.9-4.9-1.3-7.4c-1.3-8.5-2-17.2-2-26c0-23.1,4.6-45.1,12.9-65.1c5.4-13,12.3-25.1,20.6-36.2
			c31-41.8,80.7-68.8,136.7-68.8c57.3,0,107.9,28.3,138.8,71.6c8.7,12.3,15.9,25.7,21.1,40.1c5.7,15.7,9.2,32.4,10.1,49.9
			C435.6,229.2,435.6,232,435.6,234.9z"/>
	</g>
</g>
<linearGradient id="SVGID_4_" gradientUnits="userSpaceOnUse" x1="95.3153" y1="205.1779" x2="435.6166" y2="205.1779">
	<stop  offset="0.1054" style="stop-color:#2E3192"/>
	<stop  offset="1" style="stop-color:#0071BC"/>
</linearGradient>
<path class="st6" d="M435.6,234.9c0,14.2-1.7,28.1-5.1,41.3c-11.8,2.8-23.2,0.6-34.9-4.3c-35.7-14.8-74.5-53.7-136.7-47.8
	c-13.8,1.3-21.3,4.1-29.1,7.7c-11.4,5.3-23.4,12.4-56.6,19c-16.6,3.3-38.8,7.8-60.7,9.4c-5.1,0.4-10.2,0.6-15.2,0.6
	c-1.3-8.5-2-17.2-2-26c0-23.1,4.6-45.1,12.9-65.1c9.3-7,11.8-20.1,22.9-29.3c0.5-0.4,1-0.8,1.5-1.2c27.6-20.4,61.5,15.5,132.3,22.2
	c3.9,0.4,8.5,0.8,13.7,1.2c16.3,1.1,38.7,1.6,63.3-3c16-3,33-8.1,49.9-16.5c4.4-2.2,8.5-4.5,12.3-6.7c8.7,12.3,15.9,25.7,21.1,40.1
	c5.7,15.7,9.2,32.4,10.1,49.9C435.6,229.2,435.6,232,435.6,234.9z"/>
<linearGradient id="SVGID_5_" gradientUnits="userSpaceOnUse" x1="95.3153" y1="217.7214" x2="435.6166" y2="217.7214">
	<stop  offset="0.1054" style="stop-color:#00A99D"/>
	<stop  offset="1" style="stop-color:#2E3192"/>
</linearGradient>
<path class="st7" d="M435.6,234.9c0,14.2-1.7,28.1-5.1,41.3c-1.5,6.2-3.4,12.2-5.6,18.1c-0.2,0.5-0.4,1-0.6,1.5
	c-26.7-4.2-66.4-18.4-118.7-13.2c-4.9,0.5-9.3,1.1-13.4,1.8c-43.9,7.4-49.3,25.4-97.4,26.4c-14.1,0.3-54.5,1.1-88.4-15.2
	c-3.3-8.7-6-17.8-7.8-27.2c-0.5-2.4-0.9-4.9-1.3-7.4c-1.3-8.5-2-17.2-2-26c0-23.1,4.6-45.1,12.9-65.1c5.4-13,12.3-25.1,20.6-36.2
	c1,2.1,1.7,4.4,2.4,6.9c3.9,15,3.9,36.9,18.2,53c33.1,37.5,124.5,23.7,134.5-5.5c2.8-8-0.8-16.9-5.1-25.4
	c-6.3-12.2-14.3-23.9-8.5-31.8c5.8-7.9,21-5.9,24.5-5.5c21.3,2.8,35.4,18.1,47.3,34.2c15.3,20.8,27.1,43.2,46.3,43
	c16.9-0.2,26.8-17.8,36.9-26.1c5.7,15.7,9.2,32.4,10.1,49.9C435.6,229.2,435.6,232,435.6,234.9z"/>
<linearGradient id="SVGID_6_" gradientUnits="userSpaceOnUse" x1="139.2406" y1="197.8635" x2="396.1543" y2="346.1927">
	<stop  offset="0.1054" style="stop-color:#0071BC"/>
	<stop  offset="1" style="stop-color:#0071BC"/>
</linearGradient>
<path class="st8" d="M435.6,234.9c0,14.2-1.7,28.1-5.1,41.3c-1.5,6.2-3.4,12.2-5.6,18.1c-0.2,0.5-0.4,1-0.6,1.5
	c-0.7,1.7-1.3,3.4-2,5.1c-3.6,0-7.3,0-11.1,0.2c-78.6,3.3-86.7,43.6-165,49.8c-1.7,0.1-3.4,0.3-5.1,0.3c-29.2,1.7-58.9-1.7-84.7-8.1
	c-9.5-2.3-18.4-5.1-26.7-8.1c-0.7-1.4-1.3-2.9-1.9-4.3c-1.3-3-2.4-6-3.5-9H119c-4.9-8.3-9.1-17-12.6-26.1c-3.3-8.7-6-17.8-7.8-27.2
	c4.3-2.8,9-5.5,13.9-8c19.4-9.9,42-17.2,53.4-20.3c13-3.6,36.3-10,63.9-8.1c10.2,0.7,21,2.5,32,6c37.2,11.7,37.4,29.8,74.1,37.1
	c6.3,1.3,34.2,6.8,59.6-3c6.2-2.4,12.2-5.7,17.8-10.1c15.5-12.6,14.3-24.1,22-35.4C435.6,229.2,435.6,232,435.6,234.9z"/>
<linearGradient id="SVGID_7_" gradientUnits="userSpaceOnUse" x1="168.6764" y1="259.7318" x2="377.872" y2="380.511">
	<stop  offset="0.1054" style="stop-color:#29ABE2"/>
	<stop  offset="1" style="stop-color:#0071BC"/>
</linearGradient>
<path class="st9" d="M425,294.2c-0.2,0.5-0.4,1-0.6,1.5c-0.7,1.7-1.3,3.4-2,5.1c-3,7.2-6.5,14.1-10.5,20.7h-5.3
	c-1.8,5.1-3.9,10.1-6.2,15c-1.9,4-4,7.8-6.2,11.6h-11c-2.7,7.8-6.2,15.2-10.3,22.1H258.3c-7.9-5.5-16.8-10.3-32-13.3
	c-7.3-1.5-43.3-8.6-71,8.6c-2.4-4.4-4.5-9-6.3-13.7c-0.5-1.2-0.9-2.5-1.4-3.7h-11c-2.1-3.5-4-7-5.7-10.7c-0.4-0.9-0.8-1.7-1.2-2.6
	c-0.7-1.4-1.3-2.9-1.9-4.3c7.4,0.4,15.2,0.6,23.3,0.2c69.8-2.9,84-35,141.1-46.5c8.6-1.7,18.1-3,28.9-3.6
	C357.8,278.5,395.3,284.4,425,294.2z"/>
<linearGradient id="SVGID_8_" gradientUnits="userSpaceOnUse" x1="180.9022" y1="296.6443" x2="363.1914" y2="401.889">
	<stop  offset="0.1054" style="stop-color:#0071BC"/>
	<stop  offset="1" style="stop-color:#2E3192"/>
</linearGradient>
<path class="st10" d="M400.4,336.5c-1.9,4-4,7.8-6.2,11.6h-11c-2.7,7.8-6.2,15.2-10.3,22.1H158c0,0,0-0.1-0.1-0.1
	c-0.9-1.5-1.8-3.1-2.6-4.6c-2.4-4.4-4.5-9-6.3-13.7c1.8-2.9,3.9-5.6,6.4-8c0.3-0.3,0.6-0.6,0.9-0.8c19.7-17.3,47.8-2.8,89.8,7.8
	c20.9,5.3,45.3,9.5,73.9,8.3C358,357.6,379.5,347.4,400.4,336.5z"/>
</svg>
